<?xml version="1.0" standalone="yes"?>
<svg xmlns="http://www.w3.org/2000/svg" width="550" height="481">
<path style="fill:#020101; stroke:none;" d="M0 0L0 481L550 481L550 0L0 0z"/>
<path style="fill:#4a2b1b; stroke:none;" d="M305 57C305 73.342 312.443 69.2031 322.917 77.3333C326.115 79.8161 324.909 84.1234 329 85L332 97L345 99C344.08 94.1243 346.519 77.7593 341 77L339 69L333 63L330 61L324 58L320 59L305 57z"/>
<path style="fill:#020101; stroke:none;" d="M308 62L332 82L333 82C327.868 72.0602 318.024 66.1733 308 62M313 62L313 63L324 66L313 62M325 66L336 80L337 80C334.811 73.7275 330.718 69.3139 325 66z"/>
<path style="fill:#4a2b1b; stroke:none;" d="M304 68L305 69L304 68M277 73L277 74L288 74L277 73M272 75C273.026 79.2983 272.285 84.3419 277 86L277 87L274 87L274 88C279.019 89.2896 284.388 89.069 287 94L301 102L305 106L308 114L312 114L317 134L331 133L329 114L328 110L322 93C316.728 91.5116 312.479 87.2577 311 82C306.024 80.2222 300.626 80.004 298 75L272 75M299 76L300 77L299 76z"/>
<path style="fill:#020101; stroke:none;" d="M276 81C288.042 87.4466 300.59 92.8215 309.112 104.04C314.939 111.711 316.882 123.784 324 130L326 120L325 120L323 129C313.238 103.695 300.462 92.5082 277 80L294 81C288.688 77.2151 280.591 75.8158 276 81z"/>
<path style="fill:#4a2b1b; stroke:none;" d="M302 77L303 78L302 77M304 78L305 79L304 78z"/>
<path style="fill:#020101; stroke:none;" d="M295 81L295 82L302 85L295 81M337 81L339 94L338 94L334 83L333 83L337 95L339 95C340.417 90.1599 339.967 85.1648 337 81M303 85C310.129 93.8412 318.169 99.7669 322 111L323 111C320.419 100.138 312.6 90.5262 303 85z"/>
<path style="fill:#4a2b1b; stroke:none;" d="M283 91L284 92L283 91M285 92L286 93L285 92M290 95L291 96L290 95M293 97L294 98L293 97M228 98L228 99L240 99L228 98z"/>
<path style="fill:#a78e3f; stroke:none;" d="M223 99L224 100L223 99z"/>
<path style="fill:#ebc65b; stroke:none;" d="M230 154C218.803 148.033 209.649 130.161 197 128L193 123C196.005 133.003 216.223 148.659 226 152C226.554 157.859 232.693 160.445 236.871 164.001C247.799 173.302 257.415 186.793 270 194C265.117 179.529 245.821 165.369 235.59 154.09C230.985 149.012 225.358 144.253 225 137L224 137C212.823 141.126 210.487 123.144 212.546 116C213.386 113.084 215.031 109.604 216.874 107.189C233.185 85.82 254.736 112.537 268 121C262.873 113.722 253.004 101.661 244 99.419C222.152 93.978 204.466 109.346 211.653 131.996C213.99 139.361 224.556 148.426 230 154z"/>
<path style="fill:#a78e3f; stroke:none;" d="M344 99L345 100L344 99z"/>
<path style="fill:#fdc72e; stroke:none;" d="M224 137L225 137C224.206 144.552 230.984 149.842 235.59 155.039C246.435 167.272 262.547 179.411 270 194L237.741 164.001L226 152C215.811 146.998 197.647 133.447 193 123C186.651 121.873 178.383 120.49 172 122.564C157.014 127.432 153.681 144.469 161.414 156.826C164.129 161.165 169.278 162.489 172.606 166.188C187.15 182.348 202.958 196.857 218.274 212.196C223.68 217.611 233.69 221.425 236 229L200.61 200.103L163 171C156.787 172.153 150.006 171.083 144.043 173.198C132.724 177.212 129.685 193.15 134.255 203C140.798 217.106 161.303 228.81 173 238.755C177.598 242.665 185.08 244.767 187 251C193.907 253.245 202.452 259.417 207 265C192.255 257.692 167.295 235.602 150 241.884C132.886 248.101 132.492 281.3 153 283L175.961 301.214L231.086 338.848L248 354C253.167 354.94 258.761 358.12 261 363C265.092 363.296 267.242 365.408 269 369C277.821 369.631 292.795 383.195 298 390C309.496 390.492 321.486 396.808 333 398.675C347.918 401.094 362.99 396.448 376 389.353C395.062 378.957 405.708 361.171 414.701 342.039C422.738 324.939 430.231 304.231 429.981 285C429.657 259.992 419.321 236.58 408.188 214.996C402.033 203.066 398.194 191.71 389.474 181.058C386.666 177.628 382.547 176.751 379.684 173.606C371.054 164.126 362.962 151.331 352.154 144.148C344.21 138.869 324.85 140.426 319.703 149.019C316.633 154.145 317.601 163.219 318.094 169C319.075 180.5 331.155 192.312 339 200C326.578 195.774 319.078 179.95 311.679 170C301.134 155.819 289.908 146.327 277.68 134.112C271.755 128.193 267.808 121.01 261.576 115.195C250.532 104.89 231.911 91.2249 217.568 105.568C211.657 111.478 210.308 123.271 212.804 130.985C214.062 134.873 220.241 140.494 224 137z"/>
<path style="fill:#4a2b1b; stroke:none;" d="M248 101L249 102L248 101z"/>
<path style="fill:#ebc65b; stroke:none;" d="M238 103L239 104L238 103M218 111L227 105L218 111M240 104L240 105L243 106L240 104M244 106L265 127L244 106z"/>
<path style="fill:#4a2b1b; stroke:none;" d="M213 107L214 108L213 107M211 111L212 112L211 111z"/>
<path style="fill:#ebc65b; stroke:none;" d="M217 112L216 115L217 115L217 112z"/>
<path style="fill:#020101; stroke:none;" d="M323 112L324 119L325 119L323 112z"/>
<path style="fill:#4a2b1b; stroke:none;" d="M309 115L310 116L309 115M210 116L210 128L211 128L210 116z"/>
<path style="fill:#ebc65b; stroke:none;" d="M215 116L216 117L215 116z"/>
<path style="fill:#4a2b1b; stroke:none;" d="M310 117L311 118L310 117z"/>
<path style="fill:#a78e3f; stroke:none;" d="M173.667 120.333L174.333 120.667L173.667 120.333z"/>
<path style="fill:#ebc65b; stroke:none;" d="M157 138L158 138C161.818 124.234 174.723 122 187 122C175.548 114.176 157.666 125.185 157 138z"/>
<path style="fill:#a78e3f; stroke:none;" d="M185 120L186 121L185 120z"/>
<path style="fill:#4a2b1b; stroke:none;" d="M186 120L187 121L186 120z"/>
<path style="fill:#a78e3f; stroke:none;" d="M168 121L169 122L168 121z"/>
<path style="fill:#ebc65b; stroke:none;" d="M189 121L190 122L189 121z"/>
<path style="fill:#a78e3f; stroke:none;" d="M166 122L167 123L166 122z"/>
<path style="fill:#ebc65b; stroke:none;" d="M190 122L192 124L192 122L190 122M269 122C274.093 134.111 284.742 138.949 293.575 147.729C303.314 157.411 310.808 170.021 319.115 181C324.516 188.139 329.448 198.068 339 200C328.177 185.106 314.558 174.368 318.228 154C318.892 150.318 321.514 147.36 323 144C314.144 150.58 314.143 161.999 316 172L315 172C306.705 152.377 284.973 135.312 269 122z"/>
<path style="fill:#a78e3f; stroke:none;" d="M163 124L162 127L163 124z"/>
<path style="fill:#ebc65b; stroke:none;" d="M178 124L178 125L181 125L178 124z"/>
<path style="fill:#a78e3f; stroke:none;" d="M271 124L273 126L271 124z"/>
<path style="fill:#4a2b1b; stroke:none;" d="M272 124L273 125L272 124z"/>
<path style="fill:#ebc65b; stroke:none;" d="M173 125L174 126L173 125M184 125L185 126L184 125M215 125L216 129L217 129L215 125M163 134L172 127L163 134M186 126L187 127L186 126z"/>
<path style="fill:#a78e3f; stroke:none;" d="M196 126L198 128L196 126z"/>
<path style="fill:#4a2b1b; stroke:none;" d="M197 126L198 127L197 126z"/>
<path style="fill:#ebc65b; stroke:none;" d="M188 127L192 131L188 127z"/>
<path style="fill:#a78e3f; stroke:none;" d="M274 127L280 132L280 131L274 127z"/>
<path style="fill:#4a2b1b; stroke:none;" d="M275 127L276 128L275 127M276 128L277 129L276 128M277 129L278 130L277 129z"/>
<path style="fill:#ebc65b; stroke:none;" d="M217 130L221 134L217 130M193 131L199 137L193 131z"/>
<path style="fill:#a78e3f; stroke:none;" d="M316 131L317 132L316 131M203 132L204 133L203 132z"/>
<path style="fill:#4a2b1b; stroke:none;" d="M204 132L205 133L204 132z"/>
<path style="fill:#a78e3f; stroke:none;" d="M281 133L282 134L281 133z"/>
<path style="fill:#ebc65b; stroke:none;" d="M162 135L161 139L162 139L162 135M222.333 135.667L222.667 136.333L222.333 135.667M275 136L276 137L275 136M200 137L214 150L200 137z"/>
<path style="fill:#a78e3f; stroke:none;" d="M216 138L223 146L216 138z"/>
<path style="fill:#ebc65b; stroke:none;" d="M277 138L297 158L277 138z"/>
<path style="fill:#4a2b1b; stroke:none;" d="M212 139L213 140L212 139z"/>
<path style="fill:#ebc65b; stroke:none;" d="M226 139C234.922 158.131 258.983 170.406 271 188L272 188L253 166L226 139M323 143L323 144C331.221 142.998 342.557 139.053 350.424 143.608C357.767 147.86 367.001 158.473 372.571 165C376.878 170.047 379.028 175.726 386 177C370.995 157.376 350.474 130.178 323 143z"/>
<path style="fill:#4a2b1b; stroke:none;" d="M351 141L352 142L351 141z"/>
<path style="fill:#a78e3f; stroke:none;" d="M324 142L325 143L324 142z"/>
<path style="fill:#ebc65b; stroke:none;" d="M333 144L333 145L344 145L333 144z"/>
<path style="fill:#4a2b1b; stroke:none;" d="M219 145L220 146L219 145z"/>
<path style="fill:#ebc65b; stroke:none;" d="M330 145L321 155L322 155L331 146L330 145M345 145L346 146L345 145M157 146C157.116 159.879 167.419 163.338 175 173L176 173C174.515 164.804 168.571 163.855 163.394 158.522C160.041 155.068 159.287 150.07 157 146M161.333 146.667L161.667 147.333L161.333 146.667z"/>
<path style="fill:#a78e3f; stroke:none;" d="M219.667 146.333L220.333 146.667L219.667 146.333M223 146L224 147L223 146z"/>
<path style="fill:#ebc65b; stroke:none;" d="M347 146L348 147L347 146M349 147L357 155L349 147M162 149L164 152L162 149M215 150L229 163L215 150z"/>
<path style="fill:#a78e3f; stroke:none;" d="M361 150L366 156L361 150z"/>
<path style="fill:#4a2b1b; stroke:none;" d="M363 152L364 153L363 152M157 153L158 154L157 153z"/>
<path style="fill:#ebc65b; stroke:none;" d="M164 153L175 163L175 162L164 153z"/>
<path style="fill:#a78e3f; stroke:none;" d="M227.667 153.333L228.333 153.667L227.667 153.333z"/>
<path style="fill:#020101; stroke:none;" d="M229 153L230 154L229 153z"/>
<path style="fill:#4a2b1b; stroke:none;" d="M364 153L365 154L364 153z"/>
<path style="fill:#020101; stroke:none;" d="M230 154L235 159L230 154z"/>
<path style="fill:#a78e3f; stroke:none;" d="M302 154L303 155L302 154z"/>
<path style="fill:#4a2b1b; stroke:none;" d="M365 154L366 155L365 154z"/>
<path style="fill:#a78e3f; stroke:none;" d="M315 156L316 157L315 156z"/>
<path style="fill:#ebc65b; stroke:none;" d="M320 156L320 169L321 169L320 156M357 156L358 157L357 156z"/>
<path style="fill:#4a2b1b; stroke:none;" d="M159 157L160 158L159 157M305 158L306 159L305 158z"/>
<path style="fill:#ebc65b; stroke:none;" d="M359 158L360 159L359 158z"/>
<path style="fill:#4a2b1b; stroke:none;" d="M235 159L236 160L235 159z"/>
<path style="fill:#ebc65b; stroke:none;" d="M297 159L299 163L300 163L297 159z"/>
<path style="fill:#a78e3f; stroke:none;" d="M305 159L306 160L305 159z"/>
<path style="fill:#ebc65b; stroke:none;" d="M361 160L378 177L361 160M231 164L238 171L231 164M301 164L313 179L301 164M177 165L179 167L177 165z"/>
<path style="fill:#a78e3f; stroke:none;" d="M242 166L244 168L244 166L242 166M169 167L169 168L174 171L169 167z"/>
<path style="fill:#4a2b1b; stroke:none;" d="M170 168L171 169L170 168z"/>
<path style="fill:#ebc65b; stroke:none;" d="M180 168L195 183L180 168z"/>
<path style="fill:#4a2b1b; stroke:none;" d="M171 169L172 170L171 169z"/>
<path style="fill:#a78e3f; stroke:none;" d="M315 169L316 170L315 169z"/>
<path style="fill:#4a2b1b; stroke:none;" d="M147.667 170.333L148.333 170.667L147.667 170.333z"/>
<path style="fill:#a78e3f; stroke:none;" d="M149 170L149 171L160 171L149 170z"/>
<path style="fill:#4a2b1b; stroke:none;" d="M160 170L161 171L160 170M172 170L173 171L172 170z"/>
<path style="fill:#020101; stroke:none;" d="M315.333 170.667L315.667 171.333L315.333 170.667z"/>
<path style="fill:#ebc65b; stroke:none;" d="M321 170L325 175L321 170M140 173L140 174L161 172C155.214 169.572 145.57 170.32 140 173M163 171C166.506 177.336 176.936 184.72 184 186L184 185L163 171z"/>
<path style="fill:#4a2b1b; stroke:none;" d="M173 171L174 172L173 171z"/>
<path style="fill:#ebc65b; stroke:none;" d="M239 172L239 173L246 178L239 172M176 173L195 192L196 192C194.392 184.056 183.079 176.242 176 173z"/>
<path style="fill:#a78e3f; stroke:none;" d="M383 173L385 176L383 173z"/>
<path style="fill:#ebc65b; stroke:none;" d="M173 240C171.314 234.859 166.136 232.101 162.039 228.91C151.847 220.975 132.286 208.442 132.097 194C131.989 185.71 137.539 181.081 140 174C130.02 179.068 128.371 195.442 132.533 204.999C138.16 217.919 160.984 232.95 173 240M154 174L155 175L154 174z"/>
<path style="fill:#4a2b1b; stroke:none;" d="M384 174L385 175L384 174z"/>
<path style="fill:#ebc65b; stroke:none;" d="M145 176L145 177L149 176L145 176M159 175L162 177L162 176L159 175M325 176L328 179L325 176z"/>
<path style="fill:#a78e3f; stroke:none;" d="M135 177L136 178L135 177z"/>
<path style="fill:#ebc65b; stroke:none;" d="M163 177L175 187L163 177M142 178L140 181L142 178M387 178L388 179L387 178z"/>
<path style="fill:#4a2b1b; stroke:none;" d="M176 179L177 180L176 179z"/>
<path style="fill:#ebc65b; stroke:none;" d="M388 179L389 180L388 179M313 180L319 187L313 180M328 180L333 186L328 180M389 180C391.893 186.5 397.211 191.648 400.485 198C414.242 224.686 424.62 250.207 429 280L430 280C429.984 255.152 420.104 235.186 410.424 213C405.078 200.745 400.317 187.973 389 180M381 181L395 195L381 181M138 183L137 185L138 183z"/>
<path style="fill:#a78e3f; stroke:none;" d="M181 183L182 184L181 183z"/>
<path style="fill:#ebc65b; stroke:none;" d="M196 183L199 186L196 183M253 184C259.267 192.896 268.476 201.691 278 207L253 184M136 186L135 192L136 192L136 186M184 186C186.888 193.295 193.89 195.676 199.787 200.103C211.19 208.665 222.715 223.714 236 229C234.87 222.261 226.942 218.687 222.005 214.611C209.588 204.361 198.754 193.537 184 186M200 187L203 190L200 187M333 187L335 189L333 187M177 188L180 191L177 188z"/>
<path style="fill:#a78e3f; stroke:none;" d="M191 188L191 189L194 190L191 188z"/>
<path style="fill:#ebc65b; stroke:none;" d="M319 188L328 199L319 188z"/>
<path style="fill:#4a2b1b; stroke:none;" d="M192 189L193 190L192 189z"/>
<path style="fill:#ebc65b; stroke:none;" d="M272 189L273 190L272 189z"/>
<path style="fill:#a78e3f; stroke:none;" d="M190 190L191 191L190 190z"/>
<path style="fill:#ebc65b; stroke:none;" d="M335 190L343 200L335 190z"/>
<path style="fill:#a78e3f; stroke:none;" d="M399 190L400 191L399 190z"/>
<path style="fill:#ebc65b; stroke:none;" d="M204 191L214 201L204 191M274 191L276 196L277 196L274 191M182 192L185 195L182 192M196 192L197 193L196 192z"/>
<path style="fill:#a78e3f; stroke:none;" d="M193 193L194 194L193 193z"/>
<path style="fill:#4a2b1b; stroke:none;" d="M194 193L195 194L194 193z"/>
<path style="fill:#ebc65b; stroke:none;" d="M197 193L198 194L197 193M198 194L199 195L198 194M135 195L136 200L137 200L135 195M186 195L193 201L186 195M271 196L274 198L271 196M395 196L397 199L395 196z"/>
<path style="fill:#020101; stroke:none;" d="M200 197L204 201L200 197z"/>
<path style="fill:#ebc65b; stroke:none;" d="M277 197L279 199L277 197M329 199L332 201L332 200L329 199M279 200L281 202L279 200M397 200L399 203L397 200z"/>
<path style="fill:#a78e3f; stroke:none;" d="M404 200L405 201L404 200z"/>
<path style="fill:#ebc65b; stroke:none;" d="M137 201L139 203L137 201M194 201L198 205L194 201M333 201L336 203L336 202L333 201M343 201L344 205L341 205L341 206L344 207L343 201z"/>
<path style="fill:#4a2b1b; stroke:none;" d="M405 202L406 203L405 202z"/>
<path style="fill:#ebc65b; stroke:none;" d="M281 203L283 208L284 208L281 203M337 203L340 205L340 204L337 203M139 204L142 207L139 204z"/>
<path style="fill:#a78e3f; stroke:none;" d="M208 204L209 205L208 204z"/>
<path style="fill:#ebc65b; stroke:none;" d="M399.333 204.667L399.667 205.333L399.333 204.667z"/>
<path style="fill:#4a2b1b; stroke:none;" d="M132 205L133 206L132 205z"/>
<path style="fill:#ebc65b; stroke:none;" d="M199 205L203 209L199 205M219 205C225.008 213.529 233.625 219.757 240.999 227.015C245.312 231.26 248.588 234.588 243 239L243 240C245.741 238.678 249.096 236.661 247.824 232.999C244.672 223.924 226.75 210.459 219 205z"/>
<path style="fill:#a78e3f; stroke:none;" d="M210 206L214 209L210 206z"/>
<path style="fill:#ebc65b; stroke:none;" d="M143 207L147 211L143 207M279 207L281 209L279 207M400 207L401 208L400 207z"/>
<path style="fill:#a78e3f; stroke:none;" d="M134 208L135 209L134 208z"/>
<path style="fill:#ebc65b; stroke:none;" d="M204 209L212 216L204 209M401 209L403 215L404 215L401 209M148 211L159 220L159 219L148 211z"/>
<path style="fill:#a78e3f; stroke:none;" d="M138 212L139 213L138 212z"/>
<path style="fill:#4a2b1b; stroke:none;" d="M410 213L411 214L410 213z"/>
<path style="fill:#a78e3f; stroke:none;" d="M143 216L144 217L143 216z"/>
<path style="fill:#ebc65b; stroke:none;" d="M213 216L216 219L213 216M404 216L405 217L404 216M405 218L407 221L405 218M218 220L221 223L218 220z"/>
<path style="fill:#4a2b1b; stroke:none;" d="M149 221L150 222L149 221z"/>
<path style="fill:#ebc65b; stroke:none;" d="M160 221L164 225L160 221M407 222L409 225L407 222M222 223L230 230L222 223z"/>
<path style="fill:#a78e3f; stroke:none;" d="M415 224L416 225L415 224M154 225L155 226L154 225z"/>
<path style="fill:#ebc65b; stroke:none;" d="M165 225L169 229L165 225M409.333 226.667L409.667 227.333L409.333 226.667z"/>
<path style="fill:#4a2b1b; stroke:none;" d="M416 226L417 227L416 226z"/>
<path style="fill:#a78e3f; stroke:none;" d="M416 227L417 228L416 227z"/>
<path style="fill:#ebc65b; stroke:none;" d="M170 229L175 234L170 229M410 229L411 230L410 229M231 230L242 239L231 230M238 230L239 231L238 230M411 231L413 234L411 231z"/>
<path style="fill:#4a2b1b; stroke:none;" d="M165 234L166 235L165 234z"/>
<path style="fill:#a78e3f; stroke:none;" d="M166 234L167 235L166 234z"/>
<path style="fill:#ebc65b; stroke:none;" d="M177 235L180 238L177 235M413 235L415 238L413 235z"/>
<path style="fill:#a78e3f; stroke:none;" d="M170 238L171 239L170 238z"/>
<path style="fill:#ebc65b; stroke:none;" d="M181 238L184 241L181 238M415 239L417 242L415 239z"/>
<path style="fill:#a78e3f; stroke:none;" d="M422.333 239.667L422.667 240.333L422.333 239.667z"/>
<path style="fill:#ebc65b; stroke:none;" d="M173 240L183 249L164 241L177 248.95L207 265C203.826 259.116 193.605 252.316 187 251C185.943 245.081 178.7 240.923 173 240M205 322L153 283C139.228 280.626 133.56 262.362 139.564 250.576C141.857 246.075 146.737 244.482 150 241C135.368 243.65 131.065 265.554 138.878 276.946C143.091 283.089 152.893 287.805 159.015 292.001C173.309 301.799 188.766 315.847 205 322M185 241L188 244L185 241z"/>
<path style="fill:#4a2b1b; stroke:none;" d="M176 243L177 244L176 243z"/>
<path style="fill:#a78e3f; stroke:none;" d="M177 243L178 244L177 243M173 244L174 245L173 244z"/>
<path style="fill:#ebc65b; stroke:none;" d="M189 244L193 248L189 244M417 244L418 245L417 244M151 245L149 246L149 247L151 245M161 245L161 246L165 247L165 246L161 245z"/>
<path style="fill:#a78e3f; stroke:none;" d="M175 245L176 246L175 245z"/>
<path style="fill:#4a2b1b; stroke:none;" d="M180 246L181 247L180 246z"/>
<path style="fill:#ebc65b; stroke:none;" d="M418 246L419 247L418 246M147 247L141 255L142 255L147 247M166 247L166 248L170 250L170 249L166 247M194 248L197 251L194 248z"/>
<path style="fill:#020101; stroke:none;" d="M183 249L184 250L183 249z"/>
<path style="fill:#a78e3f; stroke:none;" d="M184.667 249.333L185.333 249.667L184.667 249.333z"/>
<path style="fill:#ebc65b; stroke:none;" d="M419 249L420 254L421 254L419 249M171 250L172 251L171 250z"/>
<path style="fill:#020101; stroke:none;" d="M185 250L186 251L185 250z"/>
<path style="fill:#ebc65b; stroke:none;" d="M173 251L176 253L176 252L173 251z"/>
<path style="fill:#a78e3f; stroke:none;" d="M186 251L187 252L186 251z"/>
<path style="fill:#ebc65b; stroke:none;" d="M198 251L201 254L198 251z"/>
<path style="fill:#a78e3f; stroke:none;" d="M136 252L137 253L136 252M188 252L189 253L188 252z"/>
<path style="fill:#ebc65b; stroke:none;" d="M177 253L180 255L180 254L177 253M203 255L209 260L203 255M140 256L140 267L141 267L140 256M182 256L183 257L182 256M421 256L421 260L422 260L421 256z"/>
<path style="fill:#4a2b1b; stroke:none;" d="M427 256L428 257L427 256z"/>
<path style="fill:#ebc65b; stroke:none;" d="M184 257L187 259L187 258L184 257z"/>
<path style="fill:#4a2b1b; stroke:none;" d="M135 258L135 268L136 268L135 258z"/>
<path style="fill:#ebc65b; stroke:none;" d="M188 259L190 261L188 259M191 261L192 262L191 261M211 261L223 271L211 261M422.333 261.667L422.667 262.333L422.333 261.667M193 262L194 263L193 262M195 263L198 265L198 264L195 263z"/>
<path style="fill:#a78e3f; stroke:none;" d="M428 263L429 264L428 263z"/>
<path style="fill:#ebc65b; stroke:none;" d="M199 265L202 267L202 266L199 265M210 266L214 270L210 266M423 267L423 273L424 273L423 267M204 268L205 269L204 268z"/>
<path style="fill:#4a2b1b; stroke:none;" d="M429 268L430 269L429 268z"/>
<path style="fill:#ebc65b; stroke:none;" d="M141 269L143 271L141 269M206 269L209 271L209 270L206 269z"/>
<path style="fill:#a78e3f; stroke:none;" d="M429.333 269.667L429.667 270.333L429.333 269.667M136 271L137 272L136 271z"/>
<path style="fill:#ebc65b; stroke:none;" d="M210 271L210 272L217 275L217 274L210 271M224 271L225 272L224 271z"/>
<path style="fill:#4a2b1b; stroke:none;" d="M136 272L137 273L136 272z"/>
<path style="fill:#ebc65b; stroke:none;" d="M143 272L147 276L143 272M424 274L424 279L425 279L424 274M218 275L221 277L221 276L218 275M224 275L223 277L224 275z"/>
<path style="fill:#a78e3f; stroke:none;" d="M138 276L139 277L138 276z"/>
<path style="fill:#ebc65b; stroke:none;" d="M148 276L150 278L148 276M151 278L153 280L151 278M154 280L156 282L154 280z"/>
<path style="fill:#4a2b1b; stroke:none;" d="M143 281L144 282L143 281z"/>
<path style="fill:#a78e3f; stroke:none;" d="M144 281L145 282L144 281z"/>
<path style="fill:#ebc65b; stroke:none;" d="M157 282L159 284L157 282z"/>
<path style="fill:#a78e3f; stroke:none;" d="M146.667 283.333L147.333 283.667L146.667 283.333M149.667 285.333L150.333 285.667L149.667 285.333z"/>
<path style="fill:#ebc65b; stroke:none;" d="M161 285L162 286L161 285z"/>
<path style="fill:#a78e3f; stroke:none;" d="M152.667 287.333L153.333 287.667L152.667 287.333z"/>
<path style="fill:#ebc65b; stroke:none;" d="M164 287L165 288L164 287M166 288L168 290L166 288z"/>
<path style="fill:#a78e3f; stroke:none;" d="M155 289L156 290L155 289z"/>
<path style="fill:#ebc65b; stroke:none;" d="M169 290L171 292L169 290z"/>
<path style="fill:#a78e3f; stroke:none;" d="M158 291L159 292L158 291z"/>
<path style="fill:#ebc65b; stroke:none;" d="M429 291C427.967 311.161 420.392 333.389 410.522 350.91C405.469 359.883 397.866 367.384 394 377C412.125 363.864 424.614 333.537 427.866 312C428.839 305.554 431.611 297.221 429 291M424 292L424 296L425 296L424 292z"/>
<path style="fill:#a78e3f; stroke:none;" d="M161 293L162 294L161 293z"/>
<path style="fill:#ebc65b; stroke:none;" d="M173 293L175 295L173 293z"/>
<path style="fill:#a78e3f; stroke:none;" d="M164 295L165 296L164 295z"/>
<path style="fill:#ebc65b; stroke:none;" d="M176 295L177 296L176 295M179 297L181 299L179 297M423 297L423 303L424 303L423 297z"/>
<path style="fill:#4a2b1b; stroke:none;" d="M123 299L122 301L123 305C119.263 305.623 121 318.409 121 322L122 322L122 318L123 318L124 334L126 333L125 336L127 340C133.199 343.029 136.083 350.067 141.715 354.11C151.737 361.307 162.144 362 174 362L174 353L175 353L175 362L176 362L176 352L172 352C170.789 348.432 168.685 347.265 165 347L161 342L158 343L157 339L153 340L151 333L147 332L136 300L123 299z"/>
<path style="fill:#ebc65b; stroke:none;" d="M182 299L184 301L182 299M185 301L187 303L185 301z"/>
<path style="fill:#a78e3f; stroke:none;" d="M429 301L430 302L429 301z"/>
<path style="fill:#4a2b1b; stroke:none;" d="M429 302L430 303L429 302z"/>
<path style="fill:#020101; stroke:none;" d="M127 305L130 305L128 303L127 305z"/>
<path style="fill:#ebc65b; stroke:none;" d="M188 303L190 305L188 303z"/>
<path style="fill:#a78e3f; stroke:none;" d="M136 304L137 305L136 304z"/>
<path style="fill:#ebc65b; stroke:none;" d="M191 305L193 307L191 305z"/>
<path style="fill:#020101; stroke:none;" d="M126 306L126 310L127 310L126 306M130 306L130 309L131 309L130 306z"/>
<path style="fill:#ebc65b; stroke:none;" d="M194 307L196 309L194 307M422.333 307.667L422.667 308.333L422.333 307.667z"/>
<path style="fill:#a78e3f; stroke:none;" d="M428 307L429 308L428 307z"/>
<path style="fill:#4a2b1b; stroke:none;" d="M428 308L429 309L428 308z"/>
<path style="fill:#ebc65b; stroke:none;" d="M197 309L197 310L202 313L197 309z"/>
<path style="fill:#020101; stroke:none;" d="M131 310L134 321L135 321L131 310z"/>
<path style="fill:#ebc65b; stroke:none;" d="M421 310L421 313L422 313L421 310z"/>
<path style="fill:#020101; stroke:none;" d="M125 312L126 313L125 312z"/>
<path style="fill:#ebc65b; stroke:none;" d="M203 313L205 315L203 313z"/>
<path style="fill:#4a2b1b; stroke:none;" d="M427 314L428 315L427 314z"/>
<path style="fill:#020101; stroke:none;" d="M126 315L126 321L127 321L126 315z"/>
<path style="fill:#ebc65b; stroke:none;" d="M206 315L208 317L206 315M420 316L421 317L420 316M209 317L211 319L209 317M419.333 318.667L419.667 319.333L419.333 318.667z"/>
<path style="fill:#a78e3f; stroke:none;" d="M426 318L427 319L426 318z"/>
<path style="fill:#ebc65b; stroke:none;" d="M212 319L214 321L212 319M215 321L217 323L215 321z"/>
<path style="fill:#020101; stroke:none;" d="M126 322L129 330L130 330L126 322M135 322C138.677 334.739 150.2 346.393 162 352L162 351L135 322z"/>
<path style="fill:#ebc65b; stroke:none;" d="M205 322L205 323L237 345C232.062 335.247 215.421 324.751 205 322M418 322L417 326L418 326L418 322z"/>
<path style="fill:#a78e3f; stroke:none;" d="M425 322L426 323L425 322z"/>
<path style="fill:#ebc65b; stroke:none;" d="M218 323L220 325L218 323M221 325L223 327L221 325z"/>
<path style="fill:#a78e3f; stroke:none;" d="M424 325L425 326L424 325z"/>
<path style="fill:#4a2b1b; stroke:none;" d="M122.333 326.667L122.667 327.333L122.333 326.667M100 344L101 344L101 336L102 336L101 350C104.747 352.135 105.567 354.806 105 359L107 362L112 362L112 367L134 371L121 365L121 364L133 367L133 366L127 364L127 363L132 365L133 365L136 363L136 362L133 362L133 358C126.208 355.568 122.353 353.713 119 347L121 348L116 344C116.378 339.572 115.607 333.903 112 331L113 328C100.053 324.173 100 333.878 100 344z"/>
<path style="fill:#ebc65b; stroke:none;" d="M224 327L227 330L224 327z"/>
<path style="fill:#a78e3f; stroke:none;" d="M101 328L102 329L101 328z"/>
<path style="fill:#ebc65b; stroke:none;" d="M416 328L415 332L416 332L416 328z"/>
<path style="fill:#4a2b1b; stroke:none;" d="M123.333 329.667L123.667 330.333L123.333 329.667z"/>
<path style="fill:#ebc65b; stroke:none;" d="M228 330L231 333L228 330z"/>
<path style="fill:#020101; stroke:none;" d="M106 331C103.535 338.07 104.334 347.611 110 353L106 333L107 333L113 350L114 350L106 331M130 331L132 334L130 331z"/>
<path style="fill:#4a2b1b; stroke:none;" d="M422 331L423 332L422 331z"/>
<path style="fill:#a78e3f; stroke:none;" d="M105 332L106 333L105 332z"/>
<path style="fill:#4a2b1b; stroke:none;" d="M219 332L220 333L219 332z"/>
<path style="fill:#a78e3f; stroke:none;" d="M220 332L221 333L220 332z"/>
<path style="fill:#ebc65b; stroke:none;" d="M232 333L235 336L232 333M414 333L413 336L414 336L414 333z"/>
<path style="fill:#4a2b1b; stroke:none;" d="M421 334L422 335L421 334z"/>
<path style="fill:#020101; stroke:none;" d="M132 335C135.907 345.084 147.595 354.377 158 357L158 356C146.568 351.239 140.765 343.004 132 335z"/>
<path style="fill:#4a2b1b; stroke:none;" d="M223 335L224 336L223 335z"/>
<path style="fill:#a78e3f; stroke:none;" d="M224 335L225 336L224 335z"/>
<path style="fill:#ebc65b; stroke:none;" d="M237 337L239 339L237 337M412 337L413 338L412 337z"/>
<path style="fill:#a78e3f; stroke:none;" d="M227 338L228 339L227 338z"/>
<path style="fill:#ebc65b; stroke:none;" d="M240 339L243 342L240 339M411 339L412 340L411 339z"/>
<path style="fill:#4a2b1b; stroke:none;" d="M419 339L420 340L419 339z"/>
<path style="fill:#ebc65b; stroke:none;" d="M410 341L411 342L410 341z"/>
<path style="fill:#4a2b1b; stroke:none;" d="M418 341L419 342L418 341z"/>
<path style="fill:#ebc65b; stroke:none;" d="M244 342L247 345L244 342M409 343L410 344L409 343z"/>
<path style="fill:#4a2b1b; stroke:none;" d="M417 343L418 344L417 343M130 344L131 345L130 344z"/>
<path style="fill:#ebc65b; stroke:none;" d="M237 345L237 346L249 353L237 345M248 345L250 347L248 345M408 345L409 346L408 345z"/>
<path style="fill:#a78e3f; stroke:none;" d="M416 345L417 346L416 345z"/>
<path style="fill:#ebc65b; stroke:none;" d="M407 347L408 348L407 347z"/>
<path style="fill:#a78e3f; stroke:none;" d="M415 347L416 348L415 347z"/>
<path style="fill:#ebc65b; stroke:none;" d="M253 349L255 351L253 349M406 349L405 351L406 349z"/>
<path style="fill:#4a2b1b; stroke:none;" d="M414 349L415 350L414 349M173 350L174 351L173 350z"/>
<path style="fill:#020101; stroke:none;" d="M114 351L127 363L127 362L114 351z"/>
<path style="fill:#ebc65b; stroke:none;" d="M256 351L262 356L256 351z"/>
<path style="fill:#4a2b1b; stroke:none;" d="M413 351L414 352L413 351M102 352L103 353L102 352z"/>
<path style="fill:#020101; stroke:none;" d="M163 352L163 353L169 358L159 357L159 358L171 358L163 352z"/>
<path style="fill:#a78e3f; stroke:none;" d="M246 352L247 353L246 352z"/>
<path style="fill:#ebc65b; stroke:none;" d="M404 352L403 354L404 352M249 353L261 363C259.538 357.808 253.722 354.983 249 353z"/>
<path style="fill:#020101; stroke:none;" d="M110 354L121 364L121 363L110 354z"/>
<path style="fill:#4a2b1b; stroke:none;" d="M141 355L142 356L141 355z"/>
<path style="fill:#ebc65b; stroke:none;" d="M402 355L401 357L402 355z"/>
<path style="fill:#a78e3f; stroke:none;" d="M410 356L411 357L410 356z"/>
<path style="fill:#ebc65b; stroke:none;" d="M264 357L266 359L264 357z"/>
<path style="fill:#a78e3f; stroke:none;" d="M254 358L255 359L254 358z"/>
<path style="fill:#ebc65b; stroke:none;" d="M400 358L399 360L400 358z"/>
<path style="fill:#a78e3f; stroke:none;" d="M408.333 358.667L408.667 359.333L408.333 358.667z"/>
<path style="fill:#ebc65b; stroke:none;" d="M267 359L271 362L271 361L267 359z"/>
<path style="fill:#a78e3f; stroke:none;" d="M258 361L259 362L258 361z"/>
<path style="fill:#ebc65b; stroke:none;" d="M398 361L395 365L398 361z"/>
<path style="fill:#4a2b1b; stroke:none;" d="M154.667 362.333L155.333 362.667L154.667 362.333z"/>
<path style="fill:#ebc65b; stroke:none;" d="M261 363L268 369C268.905 364.64 264.758 363.005 261 363z"/>
<path style="fill:#a78e3f; stroke:none;" d="M406 362L407 363L406 362z"/>
<path style="fill:#4a2b1b; stroke:none;" d="M157 363L158 364L157 363z"/>
<path style="fill:#ebc65b; stroke:none;" d="M272 363L274 365L272 363z"/>
<path style="fill:#a78e3f; stroke:none;" d="M262 364L263 365L262 364z"/>
<path style="fill:#ebc65b; stroke:none;" d="M275 365L278 368L275 365z"/>
<path style="fill:#4a2b1b; stroke:none;" d="M404 365L405 366L404 365z"/>
<path style="fill:#ebc65b; stroke:none;" d="M394 366L381 380L394 366z"/>
<path style="fill:#4a2b1b; stroke:none;" d="M266 367L267 368L266 367z"/>
<path style="fill:#a78e3f; stroke:none;" d="M267 367L268 368L267 367z"/>
<path style="fill:#ebc65b; stroke:none;" d="M269 369L298 390C294.323 382.738 277.33 369.006 269 369M279 368L282 371L279 368z"/>
<path style="fill:#a78e3f; stroke:none;" d="M400.333 369.667L400.667 370.333L400.333 369.667z"/>
<path style="fill:#4a2b1b; stroke:none;" d="M118 370L119 371L118 370z"/>
<path style="fill:#a78e3f; stroke:none;" d="M270 370L271 371L270 370z"/>
<path style="fill:#ebc65b; stroke:none;" d="M283 371L287 374L287 373L283 371z"/>
<path style="fill:#4a2b1b; stroke:none;" d="M123 372L124 373L123 372M274 373L275 374L274 373z"/>
<path style="fill:#a78e3f; stroke:none;" d="M275 373L276 374L275 373z"/>
<path style="fill:#ebc65b; stroke:none;" d="M288 375L290 377L288 375z"/>
<path style="fill:#4a2b1b; stroke:none;" d="M278 376L279 377L278 376z"/>
<path style="fill:#ebc65b; stroke:none;" d="M291 377L294 380L291 377M393 377L394 378L393 377M392 378L393 379L392 378z"/>
<path style="fill:#4a2b1b; stroke:none;" d="M282 379L283 380L282 379z"/>
<path style="fill:#ebc65b; stroke:none;" d="M391 379L392 380L391 379M390 380L391 381L390 380M296 381L297 382L296 381M378 381L371 386L371 387L378 381M299 389C303.291 395.546 314.854 396.668 322 398.21C344.799 403.13 374.365 400.721 390 381C379.196 383.731 369.856 392.556 359 396.356C339.784 403.081 317.226 396.031 299 389z"/>
<path style="fill:#4a2b1b; stroke:none;" d="M286 382L287 383L286 382z"/>
<path style="fill:#ebc65b; stroke:none;" d="M298 382L298 383L302 385L302 384L298 382M303 385L304 386L303 385z"/>
<path style="fill:#a78e3f; stroke:none;" d="M384.667 385.333L385.333 385.667L384.667 385.333z"/>
<path style="fill:#ebc65b; stroke:none;" d="M305 386L306 387L305 386z"/>
<path style="fill:#4a2b1b; stroke:none;" d="M293 387L294 388L293 387z"/>
<path style="fill:#ebc65b; stroke:none;" d="M307 387L307 388L310 389L307 387M369 387L370 388L369 387M367 388L368 389L367 388M312.667 389.333L313.333 389.667L312.667 389.333M365 389L366 390L365 389M315 390L316 391L315 390M363 390L364 391L363 390z"/>
<path style="fill:#a78e3f; stroke:none;" d="M378 390L379 391L378 390z"/>
<path style="fill:#ebc65b; stroke:none;" d="M319 391L319 392L322 392L319 391M360.667 391.333L361.333 391.667L360.667 391.333M323.667 392.333L324.333 392.667L323.667 392.333M358 392L359 393L358 392z"/>
<path style="fill:#4a2b1b; stroke:none;" d="M375 392L376 393L375 392z"/>
<path style="fill:#ebc65b; stroke:none;" d="M327 393L327 394L331 394L327 393M353 393L353 394L356 394L353 393z"/>
<path style="fill:#a78e3f; stroke:none;" d="M373 393L374 394L373 393z"/>
<path style="fill:#4a2b1b; stroke:none;" d="M307 394L308 395L307 394z"/>
<path style="fill:#ebc65b; stroke:none;" d="M332.667 394.333L333.333 394.667L332.667 394.333M350.667 394.333L351.333 394.667L350.667 394.333z"/>
<path style="fill:#a78e3f; stroke:none;" d="M371 394L372 395L371 394z"/>
<path style="fill:#4a2b1b; stroke:none;" d="M310 395L311 396L310 395z"/>
<path style="fill:#a78e3f; stroke:none;" d="M368 395L369 396L368 395z"/>
<path style="fill:#4a2b1b; stroke:none;" d="M369 395L370 396L369 395z"/>
<path style="fill:#a78e3f; stroke:none;" d="M314 396L315 397L314 396z"/>
<path style="fill:#4a2b1b; stroke:none;" d="M318 397L319 398L318 397z"/>
<path style="fill:#a78e3f; stroke:none;" d="M364 397L365 398L364 397M323 398L324 399L323 398M327 399L328 400L327 399z"/>
<path style="fill:#4a2b1b; stroke:none;" d="M357 399L358 400L357 399M335 400L335 401L348 401L335 400z"/>
</svg>
