<?xml version="1.0" standalone="yes"?>
<svg xmlns="http://www.w3.org/2000/svg" width="512" height="512">
<path style="fill:#010101; stroke:none;" d="M0 0L0 512C9.47081 511.69 16.7067 500.293 23 494L76 441C82.1458 434.854 92.6767 419.219 102 420L62 461L11 511L11 512C15.1879 512 20.8971 512.999 24.8302 511.397C33.8314 507.729 43.1233 493.877 50 487C71.0847 465.915 91.2758 442.509 114 423.213C153.534 389.643 189.231 350.769 226 314L410 130C435.33 104.66 459.487 77.5125 485 52C492.397 44.6027 507.456 34.5005 511.397 24.8302C512.999 20.8971 512 15.1879 512 11L511 11L461 62L420 102C419.219 92.6767 434.854 82.1458 441 76L494 23C500.293 16.7067 511.69 9.47079 512 0L0 0z"/>
<path style="fill:#454541; stroke:none;" d="M1 21C8.6588 17.0269 17.0269 8.65878 21 1C11.5732 1.6326 1.63262 11.5731 1 21M1 41C13.9739 34.2697 34.2696 13.9739 41 1C28.3896 1.84622 16.3276 19.4603 8.01466 28C4.14239 31.9779 1.37853 35.3594 1 41M1 61C9.18818 56.7523 15.5323 48.4677 22 42C34.2589 29.7411 52.9967 16.4277 61 1C53.469 1.50537 49.0717 6.9303 44 12L13 43C7.67497 48.3254 1.53346 53.0507 1 61M1 81L27 57L63 21L81 1C71.5546 1.63385 65.2608 10.7392 59 17L16 60C9.96316 66.0368 1.61029 71.9059 1 81M1 101C12.8327 94.8616 22.6226 81.3774 32 72L78 26C85.6376 18.3623 95.9904 10.6568 101 1C90.5688 1.69998 82.905 13.095 76 20L21 75C13.8878 82.1122 1.72081 90.259 1 101M1 121C14.9925 113.741 26.8921 97.1079 38 86L94 30C102.799 21.2011 115.237 12.1099 121 1C109.09 1.79922 98.914 17.086 91 25L24 92C16.2829 99.7171 1.78026 109.373 1 121M1 141C16.7861 132.811 30.4536 113.546 43 101L110 34C119.955 24.045 134.487 13.5539 141 1C127.74 1.88983 114.873 21.127 106 30L28 108C19.5061 116.494 1.8544 128.268 1 141M1 161C18.9345 151.696 34.7298 129.27 49 115L125 39C136.396 27.6042 153.555 15.3515 161 1C146.716 1.9585 131.618 24.3821 122 34L32 124C22.7525 133.247 1.92454 147.223 1 161M1 181C8.44465 177.138 14.1224 169.878 20 164L54 130L141 43C153.546 30.4536 172.811 16.7861 181 1C166.218 1.99197 149.985 26.0148 140 36L38 138L12 164C6.93033 169.072 1.50539 173.469 1 181M1 201C9.18818 196.752 15.5323 188.468 22 182L60 144L157 47C170.696 33.3041 192.068 18.2187 201 1C193.051 1.53345 188.325 7.67496 183 13L153 43L40 156L12 184C6.93033 189.072 1.50539 193.469 1 201M1 221L20 204L52 172L159 65L200 24L221 1C212.652 1.56018 207.57 8.42984 202 14L169 47L44 172L13 203C7.67496 208.325 1.53346 213.051 1 221M1 241L21 223L56 188L173 71L219 25L241 1C232.271 1.58575 226.807 9.19308 221 15L185 51L48 188L14 222C8.42987 227.57 1.56021 232.652 1 241M1 261L27 237L76 188L203 61L241 23L261 1C251.906 1.61026 246.037 9.96317 240 16L200 56L51 205L15 241C9.19306 246.807 1.58577 252.271 1 261M1 281L29 255L82 202L219 65L260 24L281 1C271.555 1.63385 265.261 10.7392 259 17L216 60L55 221L15 261C9.19307 266.807 1.58577 272.271 1 281M113 184C135.977 168.816 154.626 149.374 174 130L244 60L282 22C288.468 15.5323 296.752 9.18814 301 1C293.051 1.53345 288.325 7.67496 283 13L251 45L159 137C144.003 151.997 125.209 166.668 113 184M169 148C186.923 142.876 200.231 123.769 213 111L287 37C297.82 26.1801 313.928 14.6332 321 1C305.971 2.00854 289.168 26.8322 279 37L206 110C193.859 122.141 178.888 133.963 169 148M201 136C216.558 133.893 229.42 114.58 240 104L309 35C319.243 24.7565 334.301 13.914 341 1C326.716 1.9585 311.618 24.3821 302 34L235 101C223.812 112.188 210.113 123.062 201 136M226 131C240.635 129.793 253.187 110.813 263 101L330 34C339.955 24.045 354.487 13.5539 361 1C347.223 1.9245 333.247 22.7526 324 32L259 97C248.129 107.871 234.855 118.429 226 131M248 129C261.84 128.837 274.791 109.209 284 100L350 34C359.955 24.045 374.487 13.5539 381 1C367.223 1.9245 353.247 22.7526 344 32L281 95C270.129 105.871 256.855 116.429 248 129M268 129C281.84 128.837 294.791 109.209 304 100L370 34C379.955 24.045 394.487 13.5539 401 1C387.223 1.9245 373.247 22.7526 364 32L301 95C290.129 105.871 276.855 116.429 268 129M286 131C298.202 132.87 312.983 111.017 321 103L389 35C399.243 24.7565 414.301 13.914 421 1C407.223 1.9245 393.247 22.7526 384 32L319 97C308.129 107.871 294.855 118.429 286 131M303 134C314.346 136.986 331.522 112.478 339 105L408 36C418.532 25.4682 434.114 14.2738 441 1C426.969 1.94159 412.433 23.5669 403 33L337 99C325.812 110.188 312.113 121.062 303 134M318 139C330.557 140.924 346.703 117.297 355 109L427 37C437.82 26.1801 453.928 14.6332 461 1C446.716 1.9585 431.618 24.3821 422 34L353 103C341.494 114.506 327.372 125.696 318 139M333 144C338.852 145.289 342.105 140.887 346 137L371 112C396.157 86.8431 421.826 62.1743 447 37C457.82 26.1801 473.928 14.6332 481 1C466.218 1.99197 449.985 26.0148 440 36L369 107C357.177 118.823 342.63 130.33 333 144M407 90C415.764 93.5567 426.328 77.6717 432 72L478 26C485.638 18.3624 495.99 10.6568 501 1C489.957 1.74106 481.316 14.6836 474 22C452.339 43.6605 424.624 64.9809 407 90M511 6C485.144 25.7007 462.99 53.0103 440 76C433.783 82.2169 418.436 92.3846 420 102C429.26 97.6818 436.826 87.1742 444 80L492 32C497.477 26.5233 514.339 14.8453 511 6M511 26C497.499 36.2867 485.993 50.0074 474 62C457.75 78.25 440.494 93.9352 425.105 111C419.608 117.096 415.926 124.072 410 130L179 361C143.111 396.889 105.82 430.18 70 466C56.3041 479.696 34.9324 494.781 26 512C37.9101 511.201 48.086 495.914 56 488L127 417L406 138L488 56C493.965 50.0349 514.578 35.4783 511 26z"/>
<path style="fill:#010101; stroke:none;" d="M511 31C488.255 60.8522 456.546 86.4536 430 113L271 272L112 431C85.7769 457.223 60.489 488.532 31 511L31 512C35.1879 512 40.8971 512.999 44.8302 511.397C53.8314 507.729 63.1233 493.877 70 487L135 422L411 146L491 66C500.219 56.7812 517.339 46.1056 511 31z"/>
<path style="fill:#454541; stroke:none;" d="M511 46C497.135 56.5638 485.316 70.6838 473 83L404 152L193 363L92 464C77.7297 478.27 55.3037 494.066 46 512C57.6269 511.22 67.2829 496.717 75 489L143 421L410 154L489 75C494.845 69.1546 514.522 55.3304 511 46z"/>
<path style="fill:#010101; stroke:none;" d="M511 51C489.362 79.3992 459.253 103.747 434 129L281 282L129 434C103.747 459.253 79.3992 489.362 51 511L51 512C55.1879 512 60.8971 512.999 64.8302 511.397C74.8352 507.32 85.3424 491.658 93 484L169 408C177.752 399.248 192.159 377.968 205 377C189.697 398.725 165.805 417.195 147 436C122.394 460.606 98.6727 489.916 71 511L71 512C75.1879 512 80.8971 512.999 84.8302 511.397C94.5005 507.456 104.603 492.397 112 485L186 411C194.752 402.248 209.159 380.968 222 380C206.954 401.359 183.488 419.512 165 438C141.04 461.96 117.946 490.469 91 511L91 512C95.1879 512 100.897 512.999 104.83 511.397C114.501 507.456 124.603 492.397 132 485L205 412C213.569 403.431 227.405 382.949 240 382C225.212 402.993 202.17 420.83 184 439C160.364 462.636 137.583 490.746 111 511L111 512C115.188 512 120.897 512.999 124.83 511.397C134.501 507.456 144.603 492.397 152 485L224 413C232.895 404.105 246.746 383.43 260 383L176 467L131 511L131 512C135.188 512 140.897 512.999 144.83 511.397C154.501 507.456 164.603 492.397 172 485L244 413C253.071 403.929 267.508 382.438 281 382L196 467L151 511L151 512C155.188 512 160.897 512.999 164.83 511.397C174.835 507.32 185.342 491.658 193 484L269 408C278.659 398.341 290.851 380.13 305 378L218 465L171 511L171 512C175.188 512 180.897 512.999 184.83 511.397C188.801 509.779 192.037 504.968 195 502L218 479L295 402C305.456 391.544 317.075 374.547 332 371L240 463L191 511L191 512C195.188 512 200.897 512.999 204.83 511.397C209.479 509.502 213.51 503.49 217 500L244 473L322 395C335.374 381.626 348.228 364.399 366 357L265 458L211 511L211 512C215.188 512 220.897 512.999 224.83 511.397C230.487 509.092 235.727 501.273 240 497L275 462L360 377C379.712 357.288 398.601 336.462 422 321L296 447L231 511L231 512L244.83 511.397L262 495L301 456L460 297L496 261L511.397 244.83L512 231L511 231L462 281C468.849 264.307 484.438 252.562 497 240C501.273 235.727 509.092 230.487 511.397 224.83C512.999 220.897 512 215.188 512 211L511 211L465 259L464 259C461.824 250.924 473.817 243.183 479 238L502 215C504.968 212.037 509.779 208.801 511.397 204.83C512.999 200.897 512 195.188 512 191L511 191L457 247L456 247C453.723 238.549 467.547 229.453 473 224L500 197C503.49 193.51 509.502 189.479 511.397 184.83C512.999 180.897 512 175.188 512 171L511 171C497.666 188.5 479.552 203.448 464 219C460.058 222.942 456.277 227.302 452.002 230.883C451.268 231.497 447.056 234.687 447.056 231.704C447.056 225.694 461.906 215.094 466 211L498 179C502.012 174.988 509.228 170.152 511.397 164.83C512.999 160.897 512 155.188 512 151L511 151C495.728 171.044 474.816 188.184 457 206C452.4 210.6 447.991 215.705 443.002 219.883C442.268 220.497 438.056 223.687 438.056 220.704C438.056 214.275 454.581 202.419 459 198L496 161C500.533 156.467 508.955 150.822 511.397 144.83C512.999 140.897 512 135.188 512 131L511 131C493.79 153.587 470.079 172.921 450 193C444.711 198.289 439.623 203.988 434.001 208.922C433.255 209.576 427.99 213.491 428.631 209.793C429.86 202.706 444.005 192.995 449 188L490 147C496.096 140.904 508.138 132.828 511.397 124.83C512.999 120.897 512 115.188 512 111L511 111C491.853 136.13 465.343 157.657 443 180C437.013 185.987 431.169 192.176 425 197.976C424.356 198.582 417.908 203.963 418.631 199.793C419.953 192.166 435.6 181.4 441 176L490 127C496.096 120.904 508.138 112.828 511.397 104.83C512.999 100.897 512 95.1879 512 91L511 91C489.362 119.399 459.253 143.747 434 169C427.906 175.094 415.259 193.495 406 191L406 190L434 163L486 111L511.397 84.8302L512 71L511 71C487.425 101.942 454.516 128.484 427 156C419.669 163.331 412.423 170.758 405 177.995C404.4 178.579 396.849 185.306 397.631 180.793C399 172.897 415.398 161.602 421 156L488 89C497.674 79.3257 517.688 66.9395 511 51z"/>
<path style="fill:#454541; stroke:none;" d="M511 66C478.968 90.4058 451.486 124.514 423 153C416.002 159.998 408.929 166.929 402.005 174C400.847 175.182 394.379 181.149 398.377 182.654C401.143 183.696 404.351 179.61 406 177.995C412.398 171.731 418.669 165.331 425 159L492 92C497.477 86.5233 514.339 74.8453 511 66M511 86L452 144L406 191C414.943 194.115 424.258 179.742 430 174L492 112C497.477 106.523 514.339 94.8453 511 86z"/>
<path style="fill:#2f2f2c; stroke:none;" d="M407 90L408 91L407 90z"/>
<path style="fill:#0d0d0d; stroke:none;" d="M409 91L410 92L409 91z"/>
<path style="fill:#2f2f2c; stroke:none;" d="M387 95L388 96L387 95M386 96L387 97L386 96M385 97L386 98L385 97M384 98L385 99L384 98M383 99L384 100L383 99M382 100L383 101L382 100z"/>
<path style="fill:#0d0d0d; stroke:none;" d="M419 100L420 101L419 100z"/>
<path style="fill:#2f2f2c; stroke:none;" d="M381 101L382 102L381 101M380 102L381 103L380 102M379 103L380 104L379 103M378 104L379 105L378 104M377 105L378 106L377 105M376 106L377 107L376 106z"/>
<path style="fill:#454541; stroke:none;" d="M511 106C484.78 125.977 462.313 153.687 439 177C433.036 182.964 426.692 188.718 421.063 195C419.992 196.196 416.188 200.454 419.377 201.654C421.819 202.574 424.496 199.409 426 197.98C431.459 192.793 436.675 187.325 442 182L496 128C500.955 123.045 514.044 114.065 511 106z"/>
<path style="fill:#2f2f2c; stroke:none;" d="M375 107L376 108L375 107M374 108L375 109L374 108M373 109L374 110L373 109M372 110L373 111L372 110M371 111L372 112L371 111M370 112L371 113L370 112M369 113L370 114L369 113M368 114L369 115L368 114M367 115L368 116L367 115z"/>
<path style="fill:#1b1b19; stroke:none;" d="M421 115L422 116L421 115z"/>
<path style="fill:#2f2f2c; stroke:none;" d="M366 116L367 117L366 116M365 117L366 118L365 117z"/>
<path style="fill:#0d0d0d; stroke:none;" d="M420 117L421 118L420 117z"/>
<path style="fill:#2f2f2c; stroke:none;" d="M364 118L365 119L364 118M363 119L364 120L363 119z"/>
<path style="fill:#0d0d0d; stroke:none;" d="M419 119L420 120L419 119z"/>
<path style="fill:#2f2f2c; stroke:none;" d="M362 120L363 121L362 120M361 121L362 122L361 121z"/>
<path style="fill:#1b1b19; stroke:none;" d="M418 121L419 122L418 121z"/>
<path style="fill:#2f2f2c; stroke:none;" d="M360 122L361 123L360 122z"/>
<path style="fill:#0d0d0d; stroke:none;" d="M417 122L418 123L417 122z"/>
<path style="fill:#2f2f2c; stroke:none;" d="M359 123L360 124L359 123z"/>
<path style="fill:#0d0d0d; stroke:none;" d="M416 123L417 124L416 123z"/>
<path style="fill:#2f2f2c; stroke:none;" d="M358 124L359 125L358 124z"/>
<path style="fill:#0d0d0d; stroke:none;" d="M415 124L416 125L415 124z"/>
<path style="fill:#2f2f2c; stroke:none;" d="M357 125L358 126L357 125z"/>
<path style="fill:#0d0d0d; stroke:none;" d="M414 125L415 126L414 125z"/>
<path style="fill:#2f2f2c; stroke:none;" d="M356 126L357 127L356 126z"/>
<path style="fill:#0d0d0d; stroke:none;" d="M413 126L414 127L413 126z"/>
<path style="fill:#454541; stroke:none;" d="M511 126C499.319 134.9 489.374 146.626 479 157L457 179C449.002 186.998 440.918 194.919 433.005 203C431.847 204.182 425.379 210.149 429.377 211.654C433.851 213.339 443.198 200.802 446 198L494 150C499.221 144.779 514.2 134.478 511 126z"/>
<path style="fill:#2f2f2c; stroke:none;" d="M355 127L356 128L355 127z"/>
<path style="fill:#0d0d0d; stroke:none;" d="M412 127L413 128L412 127z"/>
<path style="fill:#2f2f2c; stroke:none;" d="M354 128L355 129L354 128z"/>
<path style="fill:#0d0d0d; stroke:none;" d="M411 128L412 129L411 128M268 129L268 130L272 130L268 129z"/>
<path style="fill:#1b1b19; stroke:none;" d="M272 129L273 130L272 129z"/>
<path style="fill:#0d0d0d; stroke:none;" d="M273 129L274 130L273 129z"/>
<path style="fill:#2f2f2c; stroke:none;" d="M353 129L354 130L353 129z"/>
<path style="fill:#0d0d0d; stroke:none;" d="M410 129L411 130L410 129z"/>
<path style="fill:#1b1b19; stroke:none;" d="M230 130L231 131L230 130z"/>
<path style="fill:#0d0d0d; stroke:none;" d="M231 130L232 131L231 130z"/>
<path style="fill:#2f2f2c; stroke:none;" d="M352 130L353 131L352 130z"/>
<path style="fill:#0d0d0d; stroke:none;" d="M409 130L410 131L409 130M286.667 131.333L287.333 131.667L286.667 131.333z"/>
<path style="fill:#1b1b19; stroke:none;" d="M288 131L289 132L288 131z"/>
<path style="fill:#2f2f2c; stroke:none;" d="M351 131L352 132L351 131z"/>
<path style="fill:#0d0d0d; stroke:none;" d="M408 131L409 132L408 131z"/>
<path style="fill:#2f2f2c; stroke:none;" d="M350 132L351 133L350 132z"/>
<path style="fill:#0d0d0d; stroke:none;" d="M407 132L408 133L407 132z"/>
<path style="fill:#2f2f2c; stroke:none;" d="M349 133L350 134L349 133z"/>
<path style="fill:#0d0d0d; stroke:none;" d="M406 133L407 134L406 133M208 134L209 135L208 134z"/>
<path style="fill:#1b1b19; stroke:none;" d="M303 134L304 135L303 134z"/>
<path style="fill:#2f2f2c; stroke:none;" d="M348 134L349 135L348 134z"/>
<path style="fill:#0d0d0d; stroke:none;" d="M405 134L406 135L405 134z"/>
<path style="fill:#2f2f2c; stroke:none;" d="M204 135L205 136L204 135z"/>
<path style="fill:#0d0d0d; stroke:none;" d="M205 135L206 136L205 135M306.667 135.333L307.333 135.667L306.667 135.333z"/>
<path style="fill:#2f2f2c; stroke:none;" d="M347 135L348 136L347 135z"/>
<path style="fill:#0d0d0d; stroke:none;" d="M404 135L405 136L404 135z"/>
<path style="fill:#1b1b19; stroke:none;" d="M200 136L201 137L200 136z"/>
<path style="fill:#0d0d0d; stroke:none;" d="M201.667 136.333L202.333 136.667L201.667 136.333z"/>
<path style="fill:#2f2f2c; stroke:none;" d="M346 136L347 137L346 136z"/>
<path style="fill:#0d0d0d; stroke:none;" d="M403 136L404 137L403 136z"/>
<path style="fill:#2f2f2c; stroke:none;" d="M345 137L346 138L345 137z"/>
<path style="fill:#0d0d0d; stroke:none;" d="M402 137L403 138L402 137z"/>
<path style="fill:#2f2f2c; stroke:none;" d="M344 138L345 139L344 138z"/>
<path style="fill:#0d0d0d; stroke:none;" d="M401 138L402 139L401 138M319 139L320 140L319 139z"/>
<path style="fill:#1b1b19; stroke:none;" d="M320 139L321 140L320 139z"/>
<path style="fill:#2f2f2c; stroke:none;" d="M343 139L344 140L343 139z"/>
<path style="fill:#0d0d0d; stroke:none;" d="M400 139L401 140L400 139z"/>
<path style="fill:#2f2f2c; stroke:none;" d="M342 140L343 141L342 140z"/>
<path style="fill:#0d0d0d; stroke:none;" d="M399 140L400 141L399 140z"/>
<path style="fill:#2f2f2c; stroke:none;" d="M341 141L342 142L341 141z"/>
<path style="fill:#0d0d0d; stroke:none;" d="M398 141L399 142L398 141z"/>
<path style="fill:#2f2f2c; stroke:none;" d="M340 142L341 143L340 142z"/>
<path style="fill:#0d0d0d; stroke:none;" d="M397 142L398 143L397 142z"/>
<path style="fill:#2f2f2c; stroke:none;" d="M339 143L340 144L339 143z"/>
<path style="fill:#0d0d0d; stroke:none;" d="M396 143L397 144L396 143M333 144L334 145L333 144z"/>
<path style="fill:#2f2f2c; stroke:none;" d="M338 144L339 145L338 144z"/>
<path style="fill:#0d0d0d; stroke:none;" d="M395 144L396 145L395 144z"/>
<path style="fill:#2f2f2c; stroke:none;" d="M175 145L176 146L175 145z"/>
<path style="fill:#0d0d0d; stroke:none;" d="M176 145L177 146L176 145M335 145L336 146L335 145z"/>
<path style="fill:#2f2f2c; stroke:none;" d="M336.667 145.333L337.333 145.667L336.667 145.333z"/>
<path style="fill:#0d0d0d; stroke:none;" d="M394 145L395 146L394 145z"/>
<path style="fill:#1b1b19; stroke:none;" d="M173 146L174 147L173 146z"/>
<path style="fill:#0d0d0d; stroke:none;" d="M174 146L175 147L174 146M393 146L394 147L393 146z"/>
<path style="fill:#454541; stroke:none;" d="M511 146C483.69 166.808 460.284 195.716 436 220L436 221L439 224L440 224L496 168C500.955 163.045 514.044 154.065 511 146z"/>
<path style="fill:#0d0d0d; stroke:none;" d="M171 147L172 148L171 147M392 147L393 148L392 147z"/>
<path style="fill:#1b1b19; stroke:none;" d="M168 148L169 149L168 148z"/>
<path style="fill:#0d0d0d; stroke:none;" d="M169 148L170 149L169 148M391 148L392 149L391 148M390 149L391 150L390 149M389 150L390 151L389 150M388 151L389 152L388 151M387 152L388 153L387 152M386 153L387 154L386 153M385 154L386 155L385 154M384 155L385 156L384 155M383 156L384 157L383 156M382 157L383 158L382 157M381 158L382 159L381 158M380 159L381 160L380 159M379 160L380 161L379 160M378 161L379 162L378 161M377 162L378 163L377 162M376 163L377 164L376 163M375 164L376 165L375 164M374 165L375 166L374 165z"/>
<path style="fill:#2f2f2c; stroke:none;" d="M136 166L137 167L136 166z"/>
<path style="fill:#0d0d0d; stroke:none;" d="M373 166L374 167L373 166z"/>
<path style="fill:#454541; stroke:none;" d="M511 166C486.959 184.317 466.374 209.626 445 231L445 232L448 235L449 235L498 186C502.675 181.325 513.866 173.593 511 166z"/>
<path style="fill:#0d0d0d; stroke:none;" d="M372 167L373 168L372 167M371 168L372 169L371 168z"/>
<path style="fill:#1b1b19; stroke:none;" d="M132 169L133 170L132 169z"/>
<path style="fill:#0d0d0d; stroke:none;" d="M370 169L371 170L370 169M131 170L132 171L131 170M369 170L370 171L369 170z"/>
<path style="fill:#2f2f2c; stroke:none;" d="M129 171L130 172L129 171z"/>
<path style="fill:#0d0d0d; stroke:none;" d="M368 171L369 172L368 171M128 172L129 173L128 172M367 172L368 173L367 172M127 173L128 174L127 173M246 173L246 174L249 174L246 173M366 173L367 174L366 173z"/>
<path style="fill:#1b1b19; stroke:none;" d="M125 174L126 175L125 174z"/>
<path style="fill:#454541; stroke:none;" d="M186 237L218 206L249 174C240.745 174.2 236.554 179.446 231 185L198 218C192.193 223.807 186.21 228.318 186 237z"/>
<path style="fill:#0d0d0d; stroke:none;" d="M365 174L366 175L365 174M124 175L125 176L124 175z"/>
<path style="fill:#454541; stroke:none;" d="M189 254L190 254L214.79 229L227.015 213.093L266 177C258.317 173.882 251.93 184.07 247 189L202 234C197.049 238.951 185.484 246.329 189 254z"/>
<path style="fill:#2f2f2c; stroke:none;" d="M263 175L264 176L263 175z"/>
<path style="fill:#0d0d0d; stroke:none;" d="M364 175L365 176L364 175M123 176L124 177L123 176M265 176L266 177L265 176M363 176L364 177L363 176z"/>
<path style="fill:#2f2f2c; stroke:none;" d="M121 177L122 178L121 177z"/>
<path style="fill:#0d0d0d; stroke:none;" d="M362 177L363 178L362 177M120 178L121 179L120 178M361 178L362 179L361 178M119 179L120 180L119 179M360 179L361 180L360 179z"/>
<path style="fill:#2f2f2c; stroke:none;" d="M117 180L118 181L117 180z"/>
<path style="fill:#0d0d0d; stroke:none;" d="M359 180L360 181L359 180z"/>
<path style="fill:#1b1b19; stroke:none;" d="M116 181L117 182L116 181z"/>
<path style="fill:#0d0d0d; stroke:none;" d="M358 181L359 182L358 181M115 182L116 183L115 182M357 182L358 183L357 182M396 182L397 183L396 182M114 183L115 184L114 183z"/>
<path style="fill:#1b1b19; stroke:none;" d="M219 183L220 184L219 183z"/>
<path style="fill:#0d0d0d; stroke:none;" d="M356 183L357 184L356 183M397 183L398 184L397 183z"/>
<path style="fill:#1b1b19; stroke:none;" d="M112 184L113 185L112 184z"/>
<path style="fill:#0d0d0d; stroke:none;" d="M217 184L218 185L217 184z"/>
<path style="fill:#454541; stroke:none;" d="M218 184L219 185L218 184z"/>
<path style="fill:#0d0d0d; stroke:none;" d="M355 184L356 185L355 184M111 185L112 186L111 185M215 185L214 187L215 185z"/>
<path style="fill:#454541; stroke:none;" d="M196 207L218 185C208.973 188.822 200.331 198.306 196 207z"/>
<path style="fill:#0d0d0d; stroke:none;" d="M354 185L355 186L354 185M353 186L354 187L353 186z"/>
<path style="fill:#454541; stroke:none;" d="M511 186C502.965 192.122 496.131 199.869 489 207L474 222L466 230C464.487 231.513 451.416 242.787 456.377 244.654C460.585 246.239 468.432 235.568 471 233L502.999 201C506.868 197.112 513.281 192.042 511 186z"/>
<path style="fill:#2f2f2c; stroke:none;" d="M213 187L214 188L213 187z"/>
<path style="fill:#454541; stroke:none;" d="M269 187L256 201C262.666 200.635 271.657 194.682 269 187z"/>
<path style="fill:#0d0d0d; stroke:none;" d="M352 187L353 188L352 187M211 188L212 189L211 188M351 188L352 189L351 188M210 189L211 190L210 189M350 189L351 190L350 189z"/>
<path style="fill:#1b1b19; stroke:none;" d="M209 190L210 191L209 190z"/>
<path style="fill:#0d0d0d; stroke:none;" d="M349 190L350 191L349 190z"/>
<path style="fill:#1b1b19; stroke:none;" d="M208 191L209 192L208 191M269 191L270 192L269 191z"/>
<path style="fill:#0d0d0d; stroke:none;" d="M348 191L349 192L348 191z"/>
<path style="fill:#2f2f2c; stroke:none;" d="M407 191L408 192L407 191z"/>
<path style="fill:#1b1b19; stroke:none;" d="M207 192L208 193L207 192z"/>
<path style="fill:#0d0d0d; stroke:none;" d="M269 192L270 193L269 192M347 192L348 193L347 192z"/>
<path style="fill:#2f2f2c; stroke:none;" d="M408 192L409 193L408 192M206 193L207 194L206 193M268 193L269 194L268 193z"/>
<path style="fill:#0d0d0d; stroke:none;" d="M346 193L347 194L346 193z"/>
<path style="fill:#2f2f2c; stroke:none;" d="M205 194L206 195L205 194z"/>
<path style="fill:#0d0d0d; stroke:none;" d="M345 194L346 195L345 194M166 195L167 196L166 195z"/>
<path style="fill:#454541; stroke:none;" d="M167 195L168 196L167 195z"/>
<path style="fill:#1b1b19; stroke:none;" d="M204 195L205 196L204 195z"/>
<path style="fill:#0d0d0d; stroke:none;" d="M344 195L345 196L344 195M164 196L165 197L164 196z"/>
<path style="fill:#2f2f2c; stroke:none;" d="M165 196L166 197L165 196z"/>
<path style="fill:#454541; stroke:none;" d="M166 196L167 197L166 196z"/>
<path style="fill:#1b1b19; stroke:none;" d="M203 196L204 197L203 196z"/>
<path style="fill:#0d0d0d; stroke:none;" d="M266 196L267 197L266 196M343 196L344 197L343 196z"/>
<path style="fill:#1b1b19; stroke:none;" d="M163 197L164 198L163 197z"/>
<path style="fill:#454541; stroke:none;" d="M94 269L95 269C117.931 246.069 147.344 223.484 166 197C143.499 204.17 124.175 231.825 108 248C102.98 253.02 90.9507 261.134 94 269z"/>
<path style="fill:#1b1b19; stroke:none;" d="M202 197L203 198L202 197M265 197L266 198L265 197z"/>
<path style="fill:#0d0d0d; stroke:none;" d="M342 197L343 198L342 197M161 198L162 199L161 198M201 198L202 199L201 198M264 198L265 199L264 198M341 198L342 199L341 198z"/>
<path style="fill:#1b1b19; stroke:none;" d="M160 199L161 200L160 199z"/>
<path style="fill:#0d0d0d; stroke:none;" d="M200 199L201 200L200 199M340 199L341 200L340 199M158 200L159 201L158 200M261 200L262 201L261 200M339 200L340 201L339 200z"/>
<path style="fill:#1b1b19; stroke:none;" d="M157 201L158 202L157 201z"/>
<path style="fill:#2f2f2c; stroke:none;" d="M199 201L200 202L199 201z"/>
<path style="fill:#0d0d0d; stroke:none;" d="M256 201L256 202L259 202L256 201M338 201L339 202L338 201M417 201L418 202L417 201M155 202L156 203L155 202z"/>
<path style="fill:#1b1b19; stroke:none;" d="M198 202L199 203L198 202z"/>
<path style="fill:#0d0d0d; stroke:none;" d="M337 202L338 203L337 202M418 202L419 203L418 202M154 203L155 204L154 203M197 203L198 204L197 203M336 203L337 204L336 203z"/>
<path style="fill:#2f2f2c; stroke:none;" d="M153 204L154 205L153 204z"/>
<path style="fill:#0d0d0d; stroke:none;" d="M335 204L336 205L335 204z"/>
<path style="fill:#1b1b19; stroke:none;" d="M196 205L197 206L196 205M237 205L238 206L237 205z"/>
<path style="fill:#0d0d0d; stroke:none;" d="M334 205L335 206L334 205M195 206L196 207L195 206z"/>
<path style="fill:#2f2f2c; stroke:none;" d="M235 206L236 207L235 206z"/>
<path style="fill:#0d0d0d; stroke:none;" d="M333 206L334 207L333 206z"/>
<path style="fill:#454541; stroke:none;" d="M511 206C497.499 216.287 485.993 230.007 474 242C469.102 246.898 461.81 251.423 464 259C478.032 249.116 489.873 234.147 502 222C506.05 217.943 513.417 212.403 511 206z"/>
<path style="fill:#1b1b19; stroke:none;" d="M149 207L150 208L149 207M195 207L196 208L195 207z"/>
<path style="fill:#0d0d0d; stroke:none;" d="M234 207L235 208L234 207M332 207L333 208L332 207z"/>
<path style="fill:#1b1b19; stroke:none;" d="M232 208L233 209L232 208z"/>
<path style="fill:#0d0d0d; stroke:none;" d="M331 208L332 209L331 208M231 209L232 210L231 209M330 209L331 210L330 209M166.333 210.667L166.667 211.333L166.333 210.667z"/>
<path style="fill:#2f2f2c; stroke:none;" d="M229 210L230 211L229 210z"/>
<path style="fill:#0d0d0d; stroke:none;" d="M329 210L330 211L329 210z"/>
<path style="fill:#1b1b19; stroke:none;" d="M366 210L367 211L366 210z"/>
<path style="fill:#454541; stroke:none;" d="M165 211L101 275L101 276L104 279L105 279L152 232C157.253 226.747 166.781 219.48 165 211z"/>
<path style="fill:#1b1b19; stroke:none;" d="M228 211L229 212L228 211z"/>
<path style="fill:#0d0d0d; stroke:none;" d="M328 211L329 212L328 211z"/>
<path style="fill:#454541; stroke:none;" d="M351 232L370 214C362.956 207.131 349.484 224.626 351 232z"/>
<path style="fill:#0d0d0d; stroke:none;" d="M368 211L369 212L368 211M427 211L428 212L427 211z"/>
<path style="fill:#1b1b19; stroke:none;" d="M227 212L228 213L227 212z"/>
<path style="fill:#0d0d0d; stroke:none;" d="M327 212L328 213L327 212M369 212L370 213L369 212M428 212L429 213L428 212z"/>
<path style="fill:#1b1b19; stroke:none;" d="M165 213L166 214L165 213z"/>
<path style="fill:#0d0d0d; stroke:none;" d="M226 213L227 214L226 213M326 213L327 214L326 213M165 214L166 215L165 214M225 214L226 215L225 214M325 214L326 215L325 214z"/>
<path style="fill:#1b1b19; stroke:none;" d="M224 215L225 216L224 215z"/>
<path style="fill:#0d0d0d; stroke:none;" d="M324 215L325 216L324 215z"/>
<path style="fill:#2f2f2c; stroke:none;" d="M164 216L165 217L164 216z"/>
<path style="fill:#1b1b19; stroke:none;" d="M223 216L224 217L223 216z"/>
<path style="fill:#0d0d0d; stroke:none;" d="M323 216L324 217L323 216M164 217L165 218L164 217z"/>
<path style="fill:#2f2f2c; stroke:none;" d="M222 217L223 218L222 217z"/>
<path style="fill:#0d0d0d; stroke:none;" d="M322 217L323 218L322 217M321 218L322 219L321 218z"/>
<path style="fill:#2f2f2c; stroke:none;" d="M163 219L164 220L163 219z"/>
<path style="fill:#0d0d0d; stroke:none;" d="M221 219L222 220L221 219M320 219L321 220L320 219M377 219L378 220L377 219z"/>
<path style="fill:#1b1b19; stroke:none;" d="M220 220L221 221L220 220z"/>
<path style="fill:#0d0d0d; stroke:none;" d="M319 220L320 221L319 220z"/>
<path style="fill:#454541; stroke:none;" d="M351 252L381 223C376.41 218.525 372.645 223.381 369 227.001C361.791 234.159 351.505 241.13 351 252z"/>
<path style="fill:#0d0d0d; stroke:none;" d="M318 221L319 222L318 221M380 221L381 222L380 221M436 221L437 222L436 221M219 222L220 223L219 222M317 222L318 223L317 222z"/>
<path style="fill:#1b1b19; stroke:none;" d="M437 222L438 223L437 222z"/>
<path style="fill:#0d0d0d; stroke:none;" d="M73 223L74 224L73 223z"/>
<path style="fill:#2f2f2c; stroke:none;" d="M218 223L219 224L218 223z"/>
<path style="fill:#0d0d0d; stroke:none;" d="M316 223L317 224L316 223z"/>
<path style="fill:#2f2f2c; stroke:none;" d="M438 223L439 224L438 223z"/>
<path style="fill:#1b1b19; stroke:none;" d="M72 224L73 225L72 224z"/>
<path style="fill:#0d0d0d; stroke:none;" d="M315 224L316 225L315 224z"/>
<path style="fill:#2f2f2c; stroke:none;" d="M71 225L72 226L71 225z"/>
<path style="fill:#0d0d0d; stroke:none;" d="M217 225L218 226L217 225M314 225L315 226L314 225z"/>
<path style="fill:#454541; stroke:none;" d="M70 226L19 277C12.3057 283.694 1.67865 290.887 1 301L22 282L56.8843 245L70 226z"/>
<path style="fill:#0d0d0d; stroke:none;" d="M71 226L72 227L71 226M313 226L314 227L313 226z"/>
<path style="fill:#454541; stroke:none;" d="M511 226C492.157 240.357 472.648 260.159 462 281C476.764 270.6 489.239 254.782 502 242C506.05 237.943 513.417 232.403 511 226z"/>
<path style="fill:#0d0d0d; stroke:none;" d="M70 227L71 228L70 227M312 227L313 228L312 227M69 228L70 229L69 228M311 228L312 229L311 228z"/>
<path style="fill:#1b1b19; stroke:none;" d="M68 229L69 230L68 229z"/>
<path style="fill:#0d0d0d; stroke:none;" d="M310 229L311 230L310 229z"/>
<path style="fill:#454541; stroke:none;" d="M387 229C373.681 242.319 350.382 258.068 346 277L391 233L391 232L387 229z"/>
<path style="fill:#1b1b19; stroke:none;" d="M388 229L389 230L388 229M186 230L187 231L186 230z"/>
<path style="fill:#0d0d0d; stroke:none;" d="M309 230L310 231L309 230z"/>
<path style="fill:#1b1b19; stroke:none;" d="M350 230L351 231L350 230M389 230L390 231L389 230z"/>
<path style="fill:#0d0d0d; stroke:none;" d="M67 231L68 232L67 231M308 231L309 232L308 231M350 231L351 232L350 231z"/>
<path style="fill:#1b1b19; stroke:none;" d="M390 231L391 232L390 231z"/>
<path style="fill:#0d0d0d; stroke:none;" d="M66 232L67 233L66 232M307 232L308 233L307 232M445 232L446 233L445 232z"/>
<path style="fill:#1b1b19; stroke:none;" d="M65 233L66 234L65 233z"/>
<path style="fill:#0d0d0d; stroke:none;" d="M185 233L185 236L186 236L185 233M306 233L307 234L306 233z"/>
<path style="fill:#1b1b19; stroke:none;" d="M446 233L447 234L446 233z"/>
<path style="fill:#2f2f2c; stroke:none;" d="M64 234L65 235L64 234z"/>
<path style="fill:#0d0d0d; stroke:none;" d="M305 234L306 235L305 234z"/>
<path style="fill:#2f2f2c; stroke:none;" d="M447 234L448 235L447 234z"/>
<path style="fill:#0d0d0d; stroke:none;" d="M304 235L305 236L304 235M63 236L64 237L63 236z"/>
<path style="fill:#454541; stroke:none;" d="M160 236L141 255L129 267L122 274C120.64 275.361 109.563 284.842 114.377 286.654C118.277 288.123 124.676 279.324 127 277C135.998 268.002 145.081 259.081 153.995 250C157.724 246.201 162.006 241.611 160 236z"/>
<path style="fill:#1b1b19; stroke:none;" d="M185 236L186 237L185 236z"/>
<path style="fill:#0d0d0d; stroke:none;" d="M303 236L304 237L303 236M62 237L63 238L62 237z"/>
<path style="fill:#2f2f2c; stroke:none;" d="M185 237L186 238L185 237z"/>
<path style="fill:#0d0d0d; stroke:none;" d="M302 237L303 238L302 237z"/>
<path style="fill:#1b1b19; stroke:none;" d="M61 238L62 239L61 238z"/>
<path style="fill:#0d0d0d; stroke:none;" d="M301 238L302 239L301 238M300 239L301 240L300 239z"/>
<path style="fill:#454541; stroke:none;" d="M397 239L332 304L299 338C313.351 335.029 323.03 320.97 333 311L401 243L401 242L397 239z"/>
<path style="fill:#0d0d0d; stroke:none;" d="M398 239L399 240L398 239M60 240L61 241L60 240z"/>
<path style="fill:#2f2f2c; stroke:none;" d="M160 240L161 241L160 240z"/>
<path style="fill:#0d0d0d; stroke:none;" d="M299 240L300 241L299 240M399 240L400 241L399 240M59 241L60 242L59 241z"/>
<path style="fill:#1b1b19; stroke:none;" d="M160 241L161 242L160 241z"/>
<path style="fill:#0d0d0d; stroke:none;" d="M298 241L299 242L298 241M400 241L401 242L400 241z"/>
<path style="fill:#2f2f2c; stroke:none;" d="M58 242L59 243L58 242z"/>
<path style="fill:#0d0d0d; stroke:none;" d="M297 242L298 243L297 242M296 243L297 244L296 243M57 244L58 245L57 244z"/>
<path style="fill:#454541; stroke:none;" d="M212 244L199 258C205.676 257.394 214.77 251.832 212 244z"/>
<path style="fill:#0d0d0d; stroke:none;" d="M213 244L213 247L214 247L213 244M295 244L296 245L295 244M454 244L455 245L454 244z"/>
<path style="fill:#1b1b19; stroke:none;" d="M56 245L57 246L56 245z"/>
<path style="fill:#0d0d0d; stroke:none;" d="M294 245L295 246L294 245M351 245L352 246L351 245z"/>
<path style="fill:#1b1b19; stroke:none;" d="M455 245L456 246L455 245z"/>
<path style="fill:#2f2f2c; stroke:none;" d="M55 246L56 247L55 246z"/>
<path style="fill:#0d0d0d; stroke:none;" d="M293 246L294 247L293 246z"/>
<path style="fill:#2f2f2c; stroke:none;" d="M351 246L352 247L351 246z"/>
<path style="fill:#1b1b19; stroke:none;" d="M456 246L457 247L456 246z"/>
<path style="fill:#454541; stroke:none;" d="M511 246L449 307L330 426L273 483L246 512C254.729 511.414 260.193 503.807 266 498L303 461L455 309L499 265C503.529 260.471 513.767 253.33 511 246z"/>
<path style="fill:#0d0d0d; stroke:none;" d="M292 247L293 248L292 247z"/>
<path style="fill:#2f2f2c; stroke:none;" d="M212 248L213 249L212 248z"/>
<path style="fill:#0d0d0d; stroke:none;" d="M291 248L292 249L291 248M53 249L54 250L53 249M212 249L213 250L212 249M290 249L291 250L290 249M289 250L290 251L289 250z"/>
<path style="fill:#454541; stroke:none;" d="M328 329C339.251 326.328 346.119 317.881 354 310L392 272C396.637 267.363 401.56 262.885 405.937 258C407.108 256.693 410.143 253.646 408.248 251.752C406.354 249.857 403.307 252.892 402 254.063C397.115 258.44 392.637 263.363 388 268C368.56 287.44 343.819 306.543 328 329z"/>
<path style="fill:#0d0d0d; stroke:none;" d="M408 250L409 251L408 250M288 251L289 252L288 251M409 251L410 252L409 251z"/>
<path style="fill:#010101; stroke:none;" d="M511 251L466 297L381 382L296 467L251 511L251 512C255.188 512 260.897 512.999 264.83 511.397C270.487 509.092 275.727 501.273 280 497L313 464L460 317L501 276C508.207 268.795 515.653 262.088 511 251z"/>
<path style="fill:#0d0d0d; stroke:none;" d="M187 252L188 253L187 252M287 252L288 253L287 252M188 253L189 254L188 253z"/>
<path style="fill:#1b1b19; stroke:none;" d="M209 253L210 254L209 253z"/>
<path style="fill:#0d0d0d; stroke:none;" d="M286 253L287 254L286 253z"/>
<path style="fill:#1b1b19; stroke:none;" d="M208 254L209 255L208 254z"/>
<path style="fill:#0d0d0d; stroke:none;" d="M285 254L286 255L285 254M284 255L285 256L284 255z"/>
<path style="fill:#2f2f2c; stroke:none;" d="M462 255L463 256L462 255z"/>
<path style="fill:#454541; stroke:none;" d="M160 256L146 270L136 280L130.001 286C128.806 287.203 121.086 294.039 125.377 295.654C128.904 296.982 133.934 290.065 136 288C142.111 281.892 165.399 265.272 160 256z"/>
<path style="fill:#0d0d0d; stroke:none;" d="M161.333 256.667L161.667 257.333L161.333 256.667M283 256L284 257L283 256M462 256L463 257L462 256z"/>
<path style="fill:#2f2f2c; stroke:none;" d="M203 257L204 258L203 257z"/>
<path style="fill:#0d0d0d; stroke:none;" d="M204 257L205 258L204 257M282 257L283 258L282 257z"/>
<path style="fill:#1b1b19; stroke:none;" d="M463 257L464 258L463 257z"/>
<path style="fill:#2f2f2c; stroke:none;" d="M161 258L162 259L161 258z"/>
<path style="fill:#0d0d0d; stroke:none;" d="M199.667 258.333L200.333 258.667L199.667 258.333M281 258L282 259L281 258M280 259L281 260L280 259M279 260L280 261L279 260M278 261L279 262L278 261z"/>
<path style="fill:#454541; stroke:none;" d="M367 310C382.665 301.661 394.585 289.415 407 277C411.339 272.661 419.193 267.707 417 261L399 277L367 310z"/>
<path style="fill:#0d0d0d; stroke:none;" d="M417 261L418 262L417 261z"/>
<path style="fill:#2f2f2c; stroke:none;" d="M94 262L95 263L94 262z"/>
<path style="fill:#0d0d0d; stroke:none;" d="M277 262L278 263L277 262M93 263L94 264L93 263M276 263L277 264L276 263z"/>
<path style="fill:#1b1b19; stroke:none;" d="M418 263L419 264L418 263z"/>
<path style="fill:#0d0d0d; stroke:none;" d="M275 264L276 265L275 264M274 265L275 266L274 265z"/>
<path style="fill:#2f2f2c; stroke:none;" d="M91 266L92 267L91 266z"/>
<path style="fill:#0d0d0d; stroke:none;" d="M273 266L274 267L273 266z"/>
<path style="fill:#454541; stroke:none;" d="M511 266L454 322L344 432L291 485L266 512C274.348 511.44 279.43 504.57 285 499L319 465L459 325L500 284C504.377 279.622 513.659 273.045 511 266z"/>
<path style="fill:#2f2f2c; stroke:none;" d="M92 267L93 268L92 267z"/>
<path style="fill:#0d0d0d; stroke:none;" d="M272 267L273 268L272 267z"/>
<path style="fill:#2f2f2c; stroke:none;" d="M93 268L94 269L93 268z"/>
<path style="fill:#0d0d0d; stroke:none;" d="M271 268L272 269L271 268z"/>
<path style="fill:#2f2f2c; stroke:none;" d="M348 268L349 269L348 268z"/>
<path style="fill:#0d0d0d; stroke:none;" d="M270 269L271 270L270 269M269 270L270 271L269 270M347 270L348 271L347 270z"/>
<path style="fill:#454541; stroke:none;" d="M45 271L13 303C7.67496 308.325 1.53346 313.051 1 321C14.9905 313.742 26.8961 297.109 38 286C42.1742 281.824 48.6576 277.282 45 271z"/>
<path style="fill:#0d0d0d; stroke:none;" d="M268 271L269 272L268 271z"/>
<path style="fill:#1b1b19; stroke:none;" d="M347 271L348 272L347 271z"/>
<path style="fill:#010101; stroke:none;" d="M511 271L470 313L392 391L314 469L271 511L271 512C275.188 512 280.897 512.999 284.83 511.397C290.152 509.228 294.988 502.012 299 498L330 467L464 333L501 296C508.207 288.795 515.653 282.088 511 271z"/>
<path style="fill:#0d0d0d; stroke:none;" d="M46.3333 272.667L46.6667 273.333L46.3333 272.667z"/>
<path style="fill:#454541; stroke:none;" d="M164 272L134 303C142.361 306.393 168.957 280.513 164 272z"/>
<path style="fill:#0d0d0d; stroke:none;" d="M267 272L268 273L267 272M465.333 272.667L465.667 273.333L465.333 272.667M165 273L166 274L165 273M266 273L267 274L266 273M346 273L347 274L346 273z"/>
<path style="fill:#1b1b19; stroke:none;" d="M165 274L166 275L165 274z"/>
<path style="fill:#0d0d0d; stroke:none;" d="M265 274L266 275L265 274z"/>
<path style="fill:#1b1b19; stroke:none;" d="M346 274L347 275L346 274z"/>
<path style="fill:#0d0d0d; stroke:none;" d="M264 275L265 276L264 275M464 275L465 276L464 275z"/>
<path style="fill:#2f2f2c; stroke:none;" d="M101 276L102 277L101 276z"/>
<path style="fill:#0d0d0d; stroke:none;" d="M263 276L264 277L263 276M345.333 276.667L345.667 277.333L345.333 276.667z"/>
<path style="fill:#1b1b19; stroke:none;" d="M464 276L465 277L464 276z"/>
<path style="fill:#2f2f2c; stroke:none;" d="M102 277L103 278L102 277z"/>
<path style="fill:#0d0d0d; stroke:none;" d="M262 277L263 278L262 277M463 277L464 278L463 277z"/>
<path style="fill:#1b1b19; stroke:none;" d="M103 278L104 279L103 278z"/>
<path style="fill:#0d0d0d; stroke:none;" d="M261 278L262 279L261 278z"/>
<path style="fill:#2f2f2c; stroke:none;" d="M463 278L464 279L463 278z"/>
<path style="fill:#0d0d0d; stroke:none;" d="M260 279L261 280L260 279M462 279L463 280L462 279M259 280L260 281L259 280M258 281L259 282L258 281z"/>
<path style="fill:#454541; stroke:none;" d="M461 281L462 282L461 281z"/>
<path style="fill:#0d0d0d; stroke:none;" d="M257 282L258 283L257 282M460 282L461 283L460 282M256 283L257 284L256 283z"/>
<path style="fill:#454541; stroke:none;" d="M52 284L15 321C9.19307 326.807 1.58577 332.271 1 341C17.1444 332.625 31.1661 312.834 44 300C48.0375 295.962 57.5633 289.705 52 284z"/>
<path style="fill:#0d0d0d; stroke:none;" d="M53 284L54 285L53 284M255 284L256 285L255 284M54 285L55 286L54 285M111 285L112 286L111 285M254 285L255 286L254 285z"/>
<path style="fill:#1b1b19; stroke:none;" d="M112 286L113 287L112 286z"/>
<path style="fill:#0d0d0d; stroke:none;" d="M253 286L254 287L253 286z"/>
<path style="fill:#454541; stroke:none;" d="M511 286L458 338L358 438L310 486L286 512C293.949 511.467 298.675 505.325 304 500L336 468L464 340L502 302C506.05 297.943 513.417 292.403 511 286z"/>
<path style="fill:#1b1b19; stroke:none;" d="M55 287L56 288L55 287z"/>
<path style="fill:#0d0d0d; stroke:none;" d="M113 287L114 288L113 287z"/>
<path style="fill:#454541; stroke:none;" d="M146 311C154.594 313.994 172.403 295.624 171 287C161.837 291.273 151.791 302.78 146 311z"/>
<path style="fill:#0d0d0d; stroke:none;" d="M252 287L253 288L252 287z"/>
<path style="fill:#1b1b19; stroke:none;" d="M171 288L172 289L171 288z"/>
<path style="fill:#0d0d0d; stroke:none;" d="M251 288L252 289L251 288M250 289L251 290L250 289M172 290L173 291L172 290M249 290L250 291L249 290M248 291L249 292L248 291z"/>
<path style="fill:#010101; stroke:none;" d="M511 291L473 330L402 401L330 473L291 511L291 512C295.188 512 300.897 512.999 304.83 511.397C309.816 509.365 314.249 502.751 318 499L346 471L468 349L501 316C508.207 308.795 515.653 302.088 511 291z"/>
<path style="fill:#0d0d0d; stroke:none;" d="M247 292L248 293L247 292M246 293L247 294L246 293M122 294L123 295L122 294M245 294L246 295L245 294z"/>
<path style="fill:#454541; stroke:none;" d="M1 361C19.65 351.325 36.1555 327.844 51 313C53.1468 310.853 66.5827 300.086 63.2485 296.752C59.8703 293.373 48.2345 307.765 46 310L13 343C7.67497 348.325 1.53346 353.051 1 361z"/>
<path style="fill:#0d0d0d; stroke:none;" d="M63 295L64 296L63 295M123 295L124 296L123 295M244 295L245 296L244 295M64 296L65 297L64 296M124 296L125 297L124 296M243 296L244 297L243 296M242 297L243 298L242 297z"/>
<path style="fill:#2f2f2c; stroke:none;" d="M385 297L386 298L385 297z"/>
<path style="fill:#0d0d0d; stroke:none;" d="M241 298L242 299L241 298z"/>
<path style="fill:#454541; stroke:none;" d="M177 299L159 318C165.679 320.183 182.314 305.402 177 299z"/>
<path style="fill:#0d0d0d; stroke:none;" d="M178 299L179 300L178 299M240 299L241 300L240 299M239 300L240 301L239 300z"/>
<path style="fill:#2f2f2c; stroke:none;" d="M381 300L382 301L381 300M179 301L180 302L179 301z"/>
<path style="fill:#0d0d0d; stroke:none;" d="M238 301L239 302L238 301M380 301L381 302L380 301M237 302L238 303L237 302M379 302L380 303L379 302M134 303L135 304L134 303z"/>
<path style="fill:#2f2f2c; stroke:none;" d="M179 303L180 304L179 303z"/>
<path style="fill:#0d0d0d; stroke:none;" d="M236 303L237 304L236 303z"/>
<path style="fill:#1b1b19; stroke:none;" d="M377 303L378 304L377 303z"/>
<path style="fill:#2f2f2c; stroke:none;" d="M136 304L137 305L136 304M178 304L179 305L178 304z"/>
<path style="fill:#0d0d0d; stroke:none;" d="M235 304L236 305L235 304M376 304L377 305L376 304z"/>
<path style="fill:#454541; stroke:none;" d="M1 381C9.18818 376.752 15.5323 368.468 22 362L58 326C60.4089 323.591 76.6945 310.198 73.2485 306.752C69.8024 303.305 56.4089 319.591 54 322L15 361C9.19306 366.807 1.58577 372.271 1 381z"/>
<path style="fill:#0d0d0d; stroke:none;" d="M73 305L74 306L73 305z"/>
<path style="fill:#2f2f2c; stroke:none;" d="M177 305L178 306L177 305z"/>
<path style="fill:#0d0d0d; stroke:none;" d="M234 305L235 306L234 305z"/>
<path style="fill:#1b1b19; stroke:none;" d="M374 305L375 306L374 305z"/>
<path style="fill:#0d0d0d; stroke:none;" d="M74 306L75 307L74 306z"/>
<path style="fill:#2f2f2c; stroke:none;" d="M176 306L177 307L176 306z"/>
<path style="fill:#0d0d0d; stroke:none;" d="M233 306L234 307L233 306M373 306L374 307L373 306z"/>
<path style="fill:#454541; stroke:none;" d="M511 306L463 353L372 444L328 488L306 512C313.531 511.495 317.928 506.07 323 501L352 472L468 356L502 322C506.05 317.943 513.417 312.403 511 306z"/>
<path style="fill:#2f2f2c; stroke:none;" d="M175 307L176 308L175 307z"/>
<path style="fill:#0d0d0d; stroke:none;" d="M232 307L233 308L232 307z"/>
<path style="fill:#1b1b19; stroke:none;" d="M371 307L372 308L371 307z"/>
<path style="fill:#2f2f2c; stroke:none;" d="M174 308L175 309L174 308z"/>
<path style="fill:#0d0d0d; stroke:none;" d="M231 308L232 309L231 308z"/>
<path style="fill:#2f2f2c; stroke:none;" d="M369 308L370 309L369 308z"/>
<path style="fill:#0d0d0d; stroke:none;" d="M370 308L371 309L370 308z"/>
<path style="fill:#2f2f2c; stroke:none;" d="M173 309L174 310L173 309z"/>
<path style="fill:#0d0d0d; stroke:none;" d="M230 309L231 310L230 309M368 309L369 310L368 309z"/>
<path style="fill:#2f2f2c; stroke:none;" d="M172 310L173 311L172 310z"/>
<path style="fill:#0d0d0d; stroke:none;" d="M229 310L230 311L229 310M366 310L367 311L366 310z"/>
<path style="fill:#1b1b19; stroke:none;" d="M147 311L148 312L147 311z"/>
<path style="fill:#2f2f2c; stroke:none;" d="M171 311L172 312L171 311z"/>
<path style="fill:#0d0d0d; stroke:none;" d="M228 311L229 312L228 311z"/>
<path style="fill:#010101; stroke:none;" d="M511 311L476 347L412 411L347 476L311 511L311 512C315.188 512 320.897 512.999 324.83 511.397C329.479 509.502 333.51 503.49 337 500L362 475L473 364L501 336C508.207 328.795 515.653 322.088 511 311z"/>
<path style="fill:#0d0d0d; stroke:none;" d="M148 312L149 313L148 312z"/>
<path style="fill:#2f2f2c; stroke:none;" d="M170 312L171 313L170 312z"/>
<path style="fill:#0d0d0d; stroke:none;" d="M227 312L228 313L227 312z"/>
<path style="fill:#2f2f2c; stroke:none;" d="M169 313L170 314L169 313z"/>
<path style="fill:#0d0d0d; stroke:none;" d="M226 313L227 314L226 313M82 314L83 315L82 314z"/>
<path style="fill:#2f2f2c; stroke:none;" d="M168 314L169 315L168 314z"/>
<path style="fill:#0d0d0d; stroke:none;" d="M225 314L226 315L225 314z"/>
<path style="fill:#454541; stroke:none;" d="M1 401L30 374L86 318C79.3421 311.508 67.6483 328.352 63 333L17 379C10.7391 385.261 1.63387 391.555 1 401z"/>
<path style="fill:#0d0d0d; stroke:none;" d="M84 315L85 316L84 315z"/>
<path style="fill:#2f2f2c; stroke:none;" d="M167 315L168 316L167 315z"/>
<path style="fill:#0d0d0d; stroke:none;" d="M224 315L225 316L224 315M85 316L86 317L85 316z"/>
<path style="fill:#2f2f2c; stroke:none;" d="M166 316L167 317L166 316z"/>
<path style="fill:#0d0d0d; stroke:none;" d="M223 316L224 317L223 316z"/>
<path style="fill:#2f2f2c; stroke:none;" d="M165 317L166 318L165 317z"/>
<path style="fill:#0d0d0d; stroke:none;" d="M222 317L223 318L222 317M159 318L160 319L159 318z"/>
<path style="fill:#2f2f2c; stroke:none;" d="M164 318L165 319L164 318z"/>
<path style="fill:#0d0d0d; stroke:none;" d="M221 318L222 319L221 318M161 319L162 320L161 319z"/>
<path style="fill:#2f2f2c; stroke:none;" d="M163 319L164 320L163 319z"/>
<path style="fill:#0d0d0d; stroke:none;" d="M220 319L221 320L220 319M423 319L424 320L423 319M219 320L220 321L219 320z"/>
<path style="fill:#1b1b19; stroke:none;" d="M422 320L423 321L422 320z"/>
<path style="fill:#0d0d0d; stroke:none;" d="M218 321L219 322L218 321M420 321L419 323L420 321z"/>
<path style="fill:#454541; stroke:none;" d="M421 321L422 322L421 321z"/>
<path style="fill:#0d0d0d; stroke:none;" d="M217 322L218 323L217 322z"/>
<path style="fill:#454541; stroke:none;" d="M420 322L421 323L420 322z"/>
<path style="fill:#0d0d0d; stroke:none;" d="M216 323L217 324L216 323z"/>
<path style="fill:#1b1b19; stroke:none;" d="M418 323L419 324L418 323z"/>
<path style="fill:#454541; stroke:none;" d="M419 323L420 324L419 323M1 421C13.914 414.301 24.7565 399.243 35 389C55.0742 368.926 80.6653 349.189 97 326C88.2365 322.443 77.6716 338.328 72 344L19 397C12.3057 403.694 1.67865 410.887 1 421z"/>
<path style="fill:#2f2f2c; stroke:none;" d="M94 324L95 325L94 324z"/>
<path style="fill:#0d0d0d; stroke:none;" d="M215 324L216 325L215 324z"/>
<path style="fill:#2f2f2c; stroke:none;" d="M417 324L418 325L417 324z"/>
<path style="fill:#454541; stroke:none;" d="M418 324L419 325L418 324z"/>
<path style="fill:#0d0d0d; stroke:none;" d="M96 325L97 326L96 325M214 325L215 326L214 325M337 325L338 326L337 325M415 325L414 327L415 325z"/>
<path style="fill:#454541; stroke:none;" d="M226 512C233.949 511.467 238.675 505.325 244 500L277 467L371 373C386.315 357.685 405.533 342.698 418 325C397.939 333.481 382.043 353.957 367 369L278 458L244 492C237.827 498.173 230.055 504.183 226 512z"/>
<path style="fill:#0d0d0d; stroke:none;" d="M213 326L214 327L213 326z"/>
<path style="fill:#1b1b19; stroke:none;" d="M335 326L336 327L335 326z"/>
<path style="fill:#454541; stroke:none;" d="M511 326L467 369L386 450L346 490L326 512C341.029 510.991 357.832 486.168 368 476L473 371C483.332 360.668 493.729 350.396 503.996 340C507.666 336.284 513.134 331.653 511 326z"/>
<path style="fill:#0d0d0d; stroke:none;" d="M212 327L213 328L212 327M333 327L334 328L333 327z"/>
<path style="fill:#1b1b19; stroke:none;" d="M413 327L414 328L413 327z"/>
<path style="fill:#0d0d0d; stroke:none;" d="M211 328L212 329L211 328z"/>
<path style="fill:#1b1b19; stroke:none;" d="M330 328L331 329L330 328z"/>
<path style="fill:#0d0d0d; stroke:none;" d="M331 328L332 329L331 328M411 328L412 329L411 328M210 329L211 330L210 329z"/>
<path style="fill:#1b1b19; stroke:none;" d="M327 329L328 330L327 329z"/>
<path style="fill:#0d0d0d; stroke:none;" d="M328 329L329 330L328 329M410 329L411 330L410 329M209 330L210 331L209 330z"/>
<path style="fill:#1b1b19; stroke:none;" d="M409 330L410 331L409 330z"/>
<path style="fill:#0d0d0d; stroke:none;" d="M208 331L209 332L208 331M407 331L408 332L407 331z"/>
<path style="fill:#010101; stroke:none;" d="M511 331C486.041 363.758 451.133 391.867 422 421C392.544 450.456 364.121 485.764 331 511L331 512C335.188 512 340.897 512.999 344.83 511.397C349.141 509.64 352.772 504.229 356 501L379 478L477 380C488.136 368.864 518.649 349.229 511 331z"/>
<path style="fill:#454541; stroke:none;" d="M104 332L27 409C18.6978 417.302 1.83631 428.538 1 441C11.3848 435.613 19.7809 424.219 28 416L78 366C87.3974 356.603 102.362 346.089 108 334L104 332z"/>
<path style="fill:#0d0d0d; stroke:none;" d="M105 332L106 333L105 332M207 332L208 333L207 332M406 332L407 333L406 332z"/>
<path style="fill:#2f2f2c; stroke:none;" d="M106 333L107 334L106 333z"/>
<path style="fill:#0d0d0d; stroke:none;" d="M206 333L207 334L206 333z"/>
<path style="fill:#2f2f2c; stroke:none;" d="M405 333L406 334L405 333z"/>
<path style="fill:#0d0d0d; stroke:none;" d="M205 334L206 335L205 334M285.667 334.333L286.333 334.667L285.667 334.333z"/>
<path style="fill:#454541; stroke:none;" d="M275 342C281.28 340.812 285.165 339.379 289 334C283.208 335.341 278.628 337.128 275 342z"/>
<path style="fill:#0d0d0d; stroke:none;" d="M403 334L404 335L403 334M204 335L205 336L204 335M282 335L283 336L282 335z"/>
<path style="fill:#1b1b19; stroke:none;" d="M283 335L284 336L283 335M402 335L403 336L402 335z"/>
<path style="fill:#0d0d0d; stroke:none;" d="M203 336L204 337L203 336M280 336L281 337L280 336z"/>
<path style="fill:#1b1b19; stroke:none;" d="M305 336L306 337L305 336z"/>
<path style="fill:#0d0d0d; stroke:none;" d="M202 337L203 338L202 337z"/>
<path style="fill:#1b1b19; stroke:none;" d="M301 337L302 338L301 337z"/>
<path style="fill:#0d0d0d; stroke:none;" d="M302 337L303 338L302 337M201 338L202 339L201 338z"/>
<path style="fill:#454541; stroke:none;" d="M235 342L244 339C239.828 338.359 237.758 338.72 235 342z"/>
<path style="fill:#1b1b19; stroke:none;" d="M241 338L242 339L241 338z"/>
<path style="fill:#0d0d0d; stroke:none;" d="M242.667 338.333L243.333 338.667L242.667 338.333M200 339L201 340L200 339z"/>
<path style="fill:#1b1b19; stroke:none;" d="M258 339L258 340L261 340L258 339z"/>
<path style="fill:#2f2f2c; stroke:none;" d="M261 339L262 340L261 339z"/>
<path style="fill:#454541; stroke:none;" d="M254 343L264 339L254 343z"/>
<path style="fill:#2f2f2c; stroke:none;" d="M116 340L117 341L116 340z"/>
<path style="fill:#0d0d0d; stroke:none;" d="M117 340L118 341L117 340M199 340L200 341L199 340z"/>
<path style="fill:#454541; stroke:none;" d="M1 461C12.1099 455.237 21.2011 442.799 30 434L87 377C97.2272 366.773 113.871 355.143 120 342C109.631 340.313 96.7893 359.211 90 366L24 432C16.2829 439.717 1.78026 449.373 1 461z"/>
<path style="fill:#1b1b19; stroke:none;" d="M118 341L119 342L118 341z"/>
<path style="fill:#0d0d0d; stroke:none;" d="M198 341L199 342L198 341z"/>
<path style="fill:#2f2f2c; stroke:none;" d="M277 341L278 342L277 341z"/>
<path style="fill:#1b1b19; stroke:none;" d="M278 341L279 342L278 341z"/>
<path style="fill:#0d0d0d; stroke:none;" d="M279.667 341.333L280.333 341.667L279.667 341.333M197 342L198 343L197 342M196 343L197 344L196 343M195 344L196 345L195 344M194 345L195 346L194 345M193 346L194 347L193 346z"/>
<path style="fill:#454541; stroke:none;" d="M511 346L471 385L399 457L364 492L346 512C360.031 511.058 374.567 489.433 384 480L477 387C485.999 378.001 495.053 369.055 503.996 360C507.666 356.284 513.134 351.653 511 346z"/>
<path style="fill:#0d0d0d; stroke:none;" d="M192 347L193 348L192 347z"/>
<path style="fill:#454541; stroke:none;" d="M1 481C16.7861 472.811 30.4536 453.546 43 441C72.8492 411.151 102.157 380.843 132 351C127.732 347.098 124.339 351.686 121 355.001L99 377L26 450C17.891 458.109 1.81794 468.812 1 481z"/>
<path style="fill:#0d0d0d; stroke:none;" d="M130 348L131 349L130 348M191 348L192 349L191 348z"/>
<path style="fill:#2f2f2c; stroke:none;" d="M131 349L133 351L131 349z"/>
<path style="fill:#0d0d0d; stroke:none;" d="M132 349L133 350L132 349M190 349L191 350L190 349M189 350L190 351L189 350z"/>
<path style="fill:#2f2f2c; stroke:none;" d="M131 351L132 352L131 351z"/>
<path style="fill:#0d0d0d; stroke:none;" d="M188 351L189 352L188 351z"/>
<path style="fill:#010101; stroke:none;" d="M511 351C488.808 380.126 457.9 405.1 432 431C405.777 457.223 380.489 488.532 351 511L351 512C355.188 512 360.897 512.999 364.83 511.397C375.505 507.047 386.822 490.178 395 482L481 396C491.632 385.368 518.346 368.506 511 351z"/>
<path style="fill:#2f2f2c; stroke:none;" d="M130 352L131 353L130 352z"/>
<path style="fill:#0d0d0d; stroke:none;" d="M187 352L188 353L187 352z"/>
<path style="fill:#2f2f2c; stroke:none;" d="M129 353L130 354L129 353z"/>
<path style="fill:#0d0d0d; stroke:none;" d="M186 353L187 354L186 353z"/>
<path style="fill:#2f2f2c; stroke:none;" d="M128 354L129 355L128 354z"/>
<path style="fill:#0d0d0d; stroke:none;" d="M185 354L186 355L185 354z"/>
<path style="fill:#2f2f2c; stroke:none;" d="M127 355L128 356L127 355z"/>
<path style="fill:#0d0d0d; stroke:none;" d="M184 355L185 356L184 355z"/>
<path style="fill:#2f2f2c; stroke:none;" d="M126 356L127 357L126 356z"/>
<path style="fill:#0d0d0d; stroke:none;" d="M183 356L184 357L183 356z"/>
<path style="fill:#2f2f2c; stroke:none;" d="M125 357L126 358L125 357z"/>
<path style="fill:#0d0d0d; stroke:none;" d="M182 357L183 358L182 357M364 357L365 358L364 357z"/>
<path style="fill:#1b1b19; stroke:none;" d="M365 357L366 358L365 357z"/>
<path style="fill:#2f2f2c; stroke:none;" d="M124 358L125 359L124 358z"/>
<path style="fill:#0d0d0d; stroke:none;" d="M181 358L182 359L181 358M362 358L363 359L362 358z"/>
<path style="fill:#454541; stroke:none;" d="M206 512C213.531 511.495 217.928 506.07 223 501L249 475L326 398C338.776 385.224 354.596 372.769 365 358C346.428 363.35 332.212 383.788 319 397L242 474C230.604 485.396 213.445 497.648 206 512z"/>
<path style="fill:#2f2f2c; stroke:none;" d="M123 359L124 360L123 359z"/>
<path style="fill:#0d0d0d; stroke:none;" d="M180 359L181 360L180 359M360 359L361 360L360 359z"/>
<path style="fill:#2f2f2c; stroke:none;" d="M122 360L123 361L122 360z"/>
<path style="fill:#0d0d0d; stroke:none;" d="M179 360L180 361L179 360M358 360L359 361L358 360z"/>
<path style="fill:#2f2f2c; stroke:none;" d="M121 361L122 362L121 361z"/>
<path style="fill:#0d0d0d; stroke:none;" d="M178 361L179 362L178 361z"/>
<path style="fill:#1b1b19; stroke:none;" d="M356 361L357 362L356 361z"/>
<path style="fill:#2f2f2c; stroke:none;" d="M120 362L121 363L120 362z"/>
<path style="fill:#0d0d0d; stroke:none;" d="M177 362L178 363L177 362M354 362L355 363L354 362z"/>
<path style="fill:#2f2f2c; stroke:none;" d="M119 363L120 364L119 363z"/>
<path style="fill:#0d0d0d; stroke:none;" d="M176 363L177 364L176 363z"/>
<path style="fill:#2f2f2c; stroke:none;" d="M118 364L119 365L118 364z"/>
<path style="fill:#0d0d0d; stroke:none;" d="M175 364L176 365L175 364z"/>
<path style="fill:#2f2f2c; stroke:none;" d="M117 365L118 366L117 365z"/>
<path style="fill:#0d0d0d; stroke:none;" d="M174 365L175 366L174 365z"/>
<path style="fill:#2f2f2c; stroke:none;" d="M116 366L117 367L116 366z"/>
<path style="fill:#0d0d0d; stroke:none;" d="M173 366L174 367L173 366z"/>
<path style="fill:#454541; stroke:none;" d="M511 366C498.227 375.732 487.345 388.655 476 400L413 463C398.443 477.557 375.489 493.708 366 512C378.998 511.128 391.316 492.684 400 484L482 402C489.986 394.014 498.184 386.19 505.96 378C509.157 374.633 512.813 370.802 511 366z"/>
<path style="fill:#2f2f2c; stroke:none;" d="M115 367L116 368L115 367z"/>
<path style="fill:#0d0d0d; stroke:none;" d="M172 367L173 368L172 367z"/>
<path style="fill:#2f2f2c; stroke:none;" d="M114 368L115 369L114 368z"/>
<path style="fill:#0d0d0d; stroke:none;" d="M171 368L172 369L171 368z"/>
<path style="fill:#2f2f2c; stroke:none;" d="M113 369L114 370L113 369z"/>
<path style="fill:#0d0d0d; stroke:none;" d="M170 369L171 370L170 369z"/>
<path style="fill:#2f2f2c; stroke:none;" d="M112 370L113 371L112 370z"/>
<path style="fill:#0d0d0d; stroke:none;" d="M169 370L170 371L169 370z"/>
<path style="fill:#2f2f2c; stroke:none;" d="M111 371L112 372L111 371z"/>
<path style="fill:#0d0d0d; stroke:none;" d="M168 371L169 372L168 371M329 371L330 372L329 371z"/>
<path style="fill:#1b1b19; stroke:none;" d="M330 371L331 372L330 371z"/>
<path style="fill:#454541; stroke:none;" d="M331 371L332 372L331 371z"/>
<path style="fill:#010101; stroke:none;" d="M511 371C491.299 396.856 463.99 419.01 441 442C418.334 464.666 396.493 491.576 371 511L371 512C375.188 512 380.897 512.999 384.83 511.397C394.5 507.456 404.603 492.397 412 485L486 411C495.96 401.04 517.896 387.435 511 371z"/>
<path style="fill:#2f2f2c; stroke:none;" d="M110 372L111 373L110 372z"/>
<path style="fill:#0d0d0d; stroke:none;" d="M167 372L168 373L167 372M326 372L327 373L326 372z"/>
<path style="fill:#2f2f2c; stroke:none;" d="M327 372L328 373L327 372z"/>
<path style="fill:#454541; stroke:none;" d="M186 512C200.534 511.025 216.198 487.802 226 478L295 409C306.823 397.177 321.37 385.67 331 372C315.154 374.146 301.786 394.214 291 405L219 477C208.468 487.532 192.886 498.726 186 512z"/>
<path style="fill:#2f2f2c; stroke:none;" d="M109 373L110 374L109 373z"/>
<path style="fill:#0d0d0d; stroke:none;" d="M166 373L167 374L166 373z"/>
<path style="fill:#2f2f2c; stroke:none;" d="M108 374L109 375L108 374z"/>
<path style="fill:#0d0d0d; stroke:none;" d="M165 374L166 375L165 374z"/>
<path style="fill:#2f2f2c; stroke:none;" d="M107 375L108 376L107 375z"/>
<path style="fill:#0d0d0d; stroke:none;" d="M164 375L165 376L164 375z"/>
<path style="fill:#2f2f2c; stroke:none;" d="M106 376L107 377L106 376z"/>
<path style="fill:#0d0d0d; stroke:none;" d="M163 376L164 377L163 376z"/>
<path style="fill:#2f2f2c; stroke:none;" d="M105 377L106 378L105 377z"/>
<path style="fill:#0d0d0d; stroke:none;" d="M162 377L163 378L162 377z"/>
<path style="fill:#454541; stroke:none;" d="M66 512C80.0313 511.058 94.5669 489.433 104 480L171 413C182.188 401.812 195.887 390.938 205 378C193.11 375.555 176.823 399.177 169 407L99 477C88.4682 487.532 72.8859 498.726 66 512z"/>
<path style="fill:#2f2f2c; stroke:none;" d="M203 377L204 378L203 377z"/>
<path style="fill:#0d0d0d; stroke:none;" d="M204 377L205 378L204 377z"/>
<path style="fill:#2f2f2c; stroke:none;" d="M104 378L105 379L104 378z"/>
<path style="fill:#0d0d0d; stroke:none;" d="M161 378L162 379L161 378M301.667 378.333L302.333 378.667L301.667 378.333z"/>
<path style="fill:#2f2f2c; stroke:none;" d="M303 378L304 379L303 378z"/>
<path style="fill:#454541; stroke:none;" d="M304 378L305 379L304 378z"/>
<path style="fill:#2f2f2c; stroke:none;" d="M103 379L104 380L103 379z"/>
<path style="fill:#0d0d0d; stroke:none;" d="M160 379L161 380L160 379z"/>
<path style="fill:#2f2f2c; stroke:none;" d="M298 379L299 380L298 379z"/>
<path style="fill:#454541; stroke:none;" d="M166 512C180.031 511.058 194.567 489.433 204 480L270 414C281.188 402.812 294.887 391.938 304 379C289.643 379.667 276.555 399.445 267 409L198 478C187.757 488.243 172.699 499.086 166 512z"/>
<path style="fill:#2f2f2c; stroke:none;" d="M102 380L103 381L102 380z"/>
<path style="fill:#0d0d0d; stroke:none;" d="M159 380L160 381L159 380z"/>
<path style="fill:#454541; stroke:none;" d="M86 512C100.031 511.058 114.567 489.433 124 480L189 415C199.871 404.129 213.145 393.571 222 381C209.619 379.103 194.157 401.843 186 410L118 478C107.757 488.243 92.6993 499.086 86 512z"/>
<path style="fill:#2f2f2c; stroke:none;" d="M219 380L220 381L219 380z"/>
<path style="fill:#1b1b19; stroke:none;" d="M220 380L221 381L220 380z"/>
<path style="fill:#0d0d0d; stroke:none;" d="M221 380L222 381L221 380z"/>
<path style="fill:#2f2f2c; stroke:none;" d="M101 381L102 382L101 381z"/>
<path style="fill:#0d0d0d; stroke:none;" d="M158 381L159 382L158 381z"/>
<path style="fill:#2f2f2c; stroke:none;" d="M100 382L101 383L100 382z"/>
<path style="fill:#0d0d0d; stroke:none;" d="M157 382L158 383L157 382z"/>
<path style="fill:#454541; stroke:none;" d="M106 512C119.777 511.075 133.753 490.247 143 481L207 417C217.871 406.129 231.145 395.571 240 383C227.798 381.131 213.017 402.983 205 411L138 478C127.757 488.243 112.699 499.086 106 512z"/>
<path style="fill:#1b1b19; stroke:none;" d="M237.667 382.333L238.333 382.667L237.667 382.333z"/>
<path style="fill:#0d0d0d; stroke:none;" d="M239 382L240 383L239 382z"/>
<path style="fill:#1b1b19; stroke:none;" d="M274 382L275 383L274 382z"/>
<path style="fill:#454541; stroke:none;" d="M146 512C159.777 511.075 173.753 490.247 183 481L248 416C258.871 405.129 272.145 394.571 281 382C267.073 382.337 254.244 401.756 245 411L178 478C167.757 488.243 152.699 499.086 146 512z"/>
<path style="fill:#2f2f2c; stroke:none;" d="M99 383L100 384L99 383z"/>
<path style="fill:#0d0d0d; stroke:none;" d="M156 383L157 384L156 383z"/>
<path style="fill:#454541; stroke:none;" d="M126 512C139.777 511.075 153.753 490.247 163 481L227 417C237.871 406.129 251.145 395.571 260 383C246.16 383.163 233.209 402.791 224 412L157 479C147.045 488.955 132.513 499.446 126 512z"/>
<path style="fill:#2f2f2c; stroke:none;" d="M98 384L99 385L98 384z"/>
<path style="fill:#0d0d0d; stroke:none;" d="M155 384L156 385L155 384z"/>
<path style="fill:#2f2f2c; stroke:none;" d="M97 385L98 386L97 385z"/>
<path style="fill:#0d0d0d; stroke:none;" d="M154 385L155 386L154 385z"/>
<path style="fill:#2f2f2c; stroke:none;" d="M96 386L97 387L96 386z"/>
<path style="fill:#0d0d0d; stroke:none;" d="M153 386L154 387L153 386z"/>
<path style="fill:#454541; stroke:none;" d="M511 386C480.421 409.299 454.193 441.807 427 469C414.166 481.834 394.375 495.856 386 512C397.91 511.201 408.086 495.914 416 488L486 418C492.201 411.799 514.683 395.758 511 386z"/>
<path style="fill:#2f2f2c; stroke:none;" d="M95 387L96 388L95 387z"/>
<path style="fill:#0d0d0d; stroke:none;" d="M152 387L153 388L152 387M151 388L152 389L151 388M150 389L151 390L150 389M149 390L150 391L149 390M148 391L149 392L148 391z"/>
<path style="fill:#010101; stroke:none;" d="M511 391L451 452L391 511L391 512C395.188 512 400.897 512.999 404.83 511.397C413.497 507.865 422.384 494.616 429 488L490 427C499.375 417.625 517.461 406.397 511 391z"/>
<path style="fill:#0d0d0d; stroke:none;" d="M147 392L148 393L147 392M146 393L147 394L146 393M145 394L146 395L145 394M144 395L145 396L144 395M143 396L144 397L143 396M142 397L143 398L142 397M141 398L142 399L141 398M140 399L141 400L140 399M139 400L140 401L139 400M138 401L139 402L138 401M137 402L138 403L137 402M136 403L137 404L136 403M135 404L136 405L135 404M134 405L135 406L134 405M133 406L134 407L133 406z"/>
<path style="fill:#454541; stroke:none;" d="M511 406C485.507 425.424 463.666 452.334 441 475C429.892 486.108 413.259 498.008 406 512C416.741 511.279 424.888 499.112 432 492L490 434C495.724 428.276 514.464 415.176 511 406M89 407L24 472C16.2829 479.717 1.78026 489.373 1 501C10.6568 495.99 18.3623 485.638 26 478L72 432C76.916 427.084 95.3604 414.139 89 407z"/>
<path style="fill:#2f2f2c; stroke:none;" d="M90 407L91 408L90 407z"/>
<path style="fill:#0d0d0d; stroke:none;" d="M132 407L133 408L132 407M131 408L132 409L131 408M91 409L92 410L91 409M130 409L131 410L130 409M129 410L130 411L129 410M128 411L129 412L128 411z"/>
<path style="fill:#010101; stroke:none;" d="M511 411L462 461L411 511L411 512C415.188 512 420.897 512.999 424.83 511.397C432.828 508.138 440.904 496.096 447 490L494 443C502.718 434.282 516.932 425.137 511 411z"/>
<path style="fill:#0d0d0d; stroke:none;" d="M127 412L128 413L127 412M126 413L127 414L126 413M125 414L126 415L125 414M124 415L125 416L124 415M123 416L124 417L123 416M122 417L123 418L122 417z"/>
<path style="fill:#1b1b19; stroke:none;" d="M121 418L122 419L121 418z"/>
<path style="fill:#454541; stroke:none;" d="M6 512C17.043 511.259 25.6835 498.316 33 491L80 444C87.1743 436.826 97.6818 429.26 102 420C92.3845 418.436 82.2169 433.783 76 440L29 487C21.3623 494.638 11.0096 502.343 6 512z"/>
<path style="fill:#0d0d0d; stroke:none;" d="M100 419L101 420L100 419M119 419L120 420L119 419M117 420L118 421L117 420z"/>
<path style="fill:#2f2f2c; stroke:none;" d="M118 420L119 421L118 420z"/>
<path style="fill:#0d0d0d; stroke:none;" d="M115 421L116 422L115 421z"/>
<path style="fill:#454541; stroke:none;" d="M511 426C490.593 441.549 473.139 462.861 455 481C445.623 490.377 432.138 500.167 426 512C435.445 511.366 441.739 502.261 448 496L495 449C500.089 443.911 514.125 434.278 511 426z"/>
<path style="fill:#010101; stroke:none;" d="M511 431L471 472L431 511L431 512C435.188 512 440.897 512.999 444.83 511.397C450.822 508.955 456.467 500.533 461 496L497 460C505.149 451.851 516.453 443.994 511 431z"/>
<path style="fill:#454541; stroke:none;" d="M511 446L469 487L446 512C454.348 511.44 459.43 504.57 465 499L499 465C503.529 460.471 513.767 453.33 511 446z"/>
<path style="fill:#010101; stroke:none;" d="M511 451C495.101 471.867 471.867 495.101 451 511L451 512C455.356 512 461.807 513.187 465.715 510.972C470.696 508.148 474.964 502.036 479 498C489.887 487.113 518.503 468.88 511 451z"/>
<path style="fill:#454541; stroke:none;" d="M511 466L483 493L466 512C479.751 511.077 493.789 490.255 502.999 481C506.868 477.112 513.281 472.042 511 466z"/>
<path style="fill:#010101; stroke:none;" d="M511 471C500.216 485.153 485.153 500.216 471 511L471 512C475.188 512 480.897 512.999 484.83 511.397C489.141 509.64 492.772 504.229 496 501C504.347 492.649 516.623 484.399 511 471z"/>
<path style="fill:#454541; stroke:none;" d="M511 486C502.259 492.66 491.093 502.183 486 512C494.479 511.431 514.597 495.531 511 486z"/>
<path style="fill:#010101; stroke:none;" d="M511 491L491 511L491 512C503.906 512 517.88 507.397 511 491z"/>
<path style="fill:#454541; stroke:none;" d="M511 506L506 512C509.979 511.69 512.621 510.267 511 506z"/>
<path style="fill:#010101; stroke:none;" d="M511 511L512 512L511 511z"/>
</svg>
